<svg width="20" height="20" viewBox="0 0 20 20" fill="none" xmlns="http://www.w3.org/2000/svg">
<g id="Icon">
<g id="Vector">
<path fill-rule="evenodd" clip-rule="evenodd" d="M9.99935 2.91699C6.08703 2.91699 2.91602 6.088 2.91602 10.0003C2.91602 13.9126 6.08703 17.0837 9.99935 17.0837C13.9117 17.0837 17.0827 13.9126 17.0827 10.0003C17.0827 6.088 13.9117 2.91699 9.99935 2.91699ZM1.66602 10.0003C1.66602 5.39765 5.39667 1.66699 9.99935 1.66699C14.602 1.66699 18.3327 5.39765 18.3327 10.0003C18.3327 14.603 14.602 18.3337 9.99935 18.3337C5.39667 18.3337 1.66602 14.603 1.66602 10.0003Z" fill="currentColor"/>
<path fill-rule="evenodd" clip-rule="evenodd" d="M9.71735 5.91399C10.0625 5.91399 10.3423 6.19381 10.3423 6.53899V10.2232L13.1792 11.9156C13.4757 12.0924 13.5726 12.4761 13.3958 12.7725C13.2189 13.069 12.8353 13.1659 12.5388 12.9891L9.39715 11.1149C9.20813 11.0021 9.09235 10.7983 9.09235 10.5782V6.53899C9.09235 6.19381 9.37217 5.91399 9.71735 5.91399Z" fill="currentColor"/>
</g>
</g>
</svg>
