<svg width="20" height="20" viewBox="0 0 20 20" fill="none" xmlns="http://www.w3.org/2000/svg">
<g id="Icon">
<g id="Vector">
<path fill-rule="evenodd" clip-rule="evenodd" d="M4.11267 8.34221L3.46658 13.3589L3.46479 13.3717C3.20161 15.1275 3.55824 16.0387 4.08698 16.5354C4.64789 17.0624 5.57148 17.2918 6.8055 17.2918H13.762C14.9448 17.2918 15.8702 16.98 16.4472 16.3948C17.0074 15.8267 17.3506 14.886 17.1327 13.3679L17.1314 13.3589L16.4868 8.35296C16.1351 6.79695 15.2353 6.30684 14.5401 6.30684H6.05798C5.68175 6.30684 5.27527 6.43498 4.92745 6.73888C4.58426 7.03873 4.26426 7.54009 4.11267 8.34221ZM4.105 5.79757C4.69348 5.2834 5.39684 5.05684 6.05798 5.05684H14.5401C15.9461 5.05684 17.2675 6.08677 17.7133 8.11029C17.7173 8.12835 17.7205 8.14659 17.7229 8.16494L18.3707 13.1948C18.6244 14.9697 18.2504 16.3464 17.3373 17.2724C16.4402 18.1823 15.1346 18.5418 13.762 18.5418H6.8055C5.48423 18.5418 4.15 18.3097 3.23112 17.4465C2.28113 16.554 1.93571 15.1486 2.22763 13.1929L2.87517 8.16494C2.87664 8.15357 2.87842 8.14224 2.8805 8.13096C3.07344 7.08909 3.5142 6.31376 4.105 5.79757Z" fill="#0189FF"/>
<path fill-rule="evenodd" clip-rule="evenodd" d="M7.27946 2.50469C8.07543 1.71209 9.15422 1.26906 10.2775 1.27347C12.6104 1.27419 14.5014 3.16564 14.5014 5.49878C14.5014 5.84395 14.2216 6.12378 13.8764 6.12378C13.5313 6.12378 13.2514 5.84395 13.2514 5.49878C13.2514 3.85556 11.9194 2.52347 10.2761 2.52347C10.2753 2.52347 10.2744 2.52347 10.2735 2.52346M10.2735 2.52346C9.48246 2.5203 8.72202 2.83226 8.16148 3.39044C7.60077 3.94878 7.28557 4.70748 7.28558 5.49877C7.28558 5.66453 7.21973 5.8235 7.10252 5.94071C6.98531 6.05793 6.82634 6.12378 6.66058 6.12378C6.3154 6.12378 6.03558 5.84395 6.03558 5.49878C6.03557 4.37505 6.48319 3.29761 7.27946 2.50469" fill="#0189FF"/>
<path fill-rule="evenodd" clip-rule="evenodd" d="M12.0844 9.25164C12.0844 8.90646 12.3642 8.62664 12.7094 8.62664H12.7475C13.0927 8.62664 13.3725 8.90646 13.3725 9.25164C13.3725 9.59681 13.0927 9.87664 12.7475 9.87664H12.7094C12.3642 9.87664 12.0844 9.59681 12.0844 9.25164Z" fill="#0189FF"/>
<path fill-rule="evenodd" clip-rule="evenodd" d="M7.22551 9.25164C7.22551 8.90646 7.50533 8.62664 7.85051 8.62664H7.88865C8.23383 8.62664 8.51365 8.90646 8.51365 9.25164C8.51365 9.59681 8.23383 9.87664 7.88865 9.87664H7.85051C7.50533 9.87664 7.22551 9.59681 7.22551 9.25164Z" fill="#0189FF"/>
</g>
</g>
</svg>
