<svg width="20" height="20" viewBox="0 0 20 20" fill="none" xmlns="http://www.w3.org/2000/svg">
<g id="Icon">
<g id="Vector">
<path fill-rule="evenodd" clip-rule="evenodd" d="M10 1.75C10.3334 1.75 10.6037 2.02027 10.6037 2.35366V3.47692C12.1196 3.617 13.5469 4.2815 14.6325 5.36713C15.7181 6.45272 16.3829 7.88028 16.5231 9.39634H17.6463C17.9797 9.39634 18.25 9.66661 18.25 10C18.25 10.3334 17.9797 10.6037 17.6463 10.6037H16.5231C16.3829 12.1196 15.718 13.5465 14.6325 14.6321C13.547 15.7176 12.1198 16.3828 10.6037 16.523V17.6463C10.6037 17.9797 10.3334 18.25 10 18.25C9.66661 18.25 9.39634 17.9797 9.39634 17.6463V16.523C7.8802 16.3826 6.45313 15.7167 5.36781 14.6314C4.28257 13.5461 3.61743 12.1193 3.47703 10.6037H2.35366C2.02027 10.6037 1.75 10.3334 1.75 10C1.75 9.66661 2.02027 9.39634 2.35366 9.39634H3.47688C3.61696 7.88005 4.28219 6.45263 5.36781 5.36701C6.45336 4.28146 7.88051 3.617 9.39634 3.47692V2.35366C9.39634 2.02027 9.66661 1.75 10 1.75ZM4.65641 9.9992C4.65641 11.4164 5.2194 12.7756 6.22151 13.7777C7.22378 14.7799 8.583 15.3436 10 15.3436C11.4173 15.3436 12.7766 14.7806 13.7788 13.7784C14.7809 12.7762 15.3436 11.4174 15.3436 10C15.3436 8.58254 14.7809 7.22292 13.7788 6.22083C12.7767 5.21878 11.4175 4.65641 10 4.65641C8.58258 4.65641 7.22348 5.21874 6.22151 6.22071C5.2194 7.22283 4.65641 8.58199 4.65641 9.9992Z" fill="#0189FF"/>
<path fill-rule="evenodd" clip-rule="evenodd" d="M7.2966 7.29661C8.01358 6.57963 8.98602 6.17683 9.99999 6.17683C11.014 6.17683 11.9864 6.57963 12.7034 7.29661C13.4204 8.01359 13.8232 8.98603 13.8232 10C13.8232 11.014 13.4204 11.9864 12.7034 12.7034C11.9864 13.4204 11.014 13.8232 9.99999 13.8232C8.98602 13.8232 8.01358 13.4204 7.2966 12.7034C6.57961 11.9864 6.17682 11.014 6.17682 10C6.17682 8.98603 6.57961 8.01359 7.2966 7.29661ZM9.99999 7.38415C9.30622 7.38415 8.64087 7.65974 8.1503 8.15031C7.65973 8.64088 7.38413 9.30623 7.38413 10C7.38413 10.6938 7.65973 11.3591 8.1503 11.8497C8.64087 12.3403 9.30622 12.6159 9.99999 12.6159C10.6938 12.6159 11.3591 12.3403 11.8497 11.8497C12.3402 11.3591 12.6158 10.6938 12.6158 10C12.6158 9.30623 12.3402 8.64088 11.8497 8.15031C11.3591 7.65974 10.6938 7.38415 9.99999 7.38415Z" fill="#0189FF"/>
</g>
</g>
</svg>
