<svg width="100%" height="100%" viewBox="0 0 24 24" fill="none" xmlns="http://www.w3.org/2000/svg">
<g id="Regular/default">
<g id="Vector">
<path d="M16.3 2H7.65C4.27 2 2 4.37 2 7.9V16.05C2 19.58 4.27 21.95 7.65 21.95H16.3C19.69 21.95 21.96 19.58 21.96 16.05V7.9C21.96 4.37 19.69 2 16.3 2ZM20.46 16.05C20.46 18.72 18.83 20.45 16.3 20.45H7.65C5.13 20.45 3.5 18.72 3.5 16.05V7.9C3.5 5.23 5.13 3.5 7.65 3.5H16.3C18.83 3.5 20.46 5.23 20.46 7.9V16.05Z" fill="currentColor"/>
<path d="M16.94 12.1C16.44 11.69 15.8 11.49 15.16 11.56C14.51 11.62 13.93 11.93 13.51 12.44C13.51 12.44 11.33 15.08 11.23 15.2C10.96 15.46 10.53 15.46 10.26 15.19C10.26 15.19 9.33998 14.25 9.29998 14.22C8.43998 13.41 7.06998 13.45 6.25998 14.31L4.72998 15.92C4.44998 16.22 4.45998 16.7 4.75998 16.98C4.90998 17.12 5.08998 17.19 5.27998 17.19C5.47998 17.19 5.67998 17.11 5.81998 16.96L7.34998 15.35C7.59998 15.09 8.00998 15.08 8.24998 15.3L9.17998 16.25C10.02 17.11 11.41 17.12 12.26 16.29C12.3 16.25 12.33 16.22 14.65 13.4C14.81 13.21 15.03 13.09 15.28 13.06C15.53 13.04 15.77 13.11 15.93 13.24C16.08 13.38 18.12 15.48 18.12 15.48C18.41 15.78 18.88 15.78 19.18 15.49C19.48 15.2 19.48 14.73 19.19 14.43C16.99 12.17 16.95 12.14 16.91 12.11L16.94 12.1Z" fill="currentColor"/>
<path d="M8.56 11.64C9.94 11.64 11.06 10.52 11.06 9.14001C11.06 7.76001 9.94 6.64001 8.56 6.64001C7.18 6.64001 6.06 7.76001 6.06 9.14001C6.06 10.52 7.18 11.64 8.56 11.64ZM8.56 8.13001C9.11 8.13001 9.56 8.58001 9.56 9.13001C9.56 9.68002 9.11 10.13 8.56 10.13C8.01 10.13 7.56 9.68002 7.56 9.13001C7.56 8.58001 8.01 8.13001 8.56 8.13001Z" fill="currentColor"/>
</g>
</g>
</svg>
