<svg width="24" height="24" viewBox="0 0 24 24" fill="none" xmlns="http://www.w3.org/2000/svg">
<g id="Icon">
<g id="Vector">
<path d="M19.38 8.72C18.97 8.69 18.61 8.99 18.57 9.41C18.57 9.48 18.02 16.17 17.71 18.96C17.6 19.96 17.07 20.45 16.08 20.47C13.37 20.52 10.75 20.52 8.28 20.47C7.35 20.45 6.83 19.95 6.72 18.98C6.41 16.16 5.87 9.49 5.87 9.42C5.84 9.01 5.47 8.71 5.06 8.73C4.65 8.76 4.34 9.13 4.37 9.54C4.37 9.61 4.91 16.3 5.23 19.14C5.42 20.85 6.58 21.93 8.25 21.97C9.54 22 10.86 22.01 12.22 22.01C13.49 22.01 14.79 22 16.11 21.97C17.85 21.94 19.01 20.88 19.2 19.13C19.51 16.31 20.05 9.6 20.06 9.54C20.09 9.13 19.79 8.77 19.37 8.73L19.38 8.72Z" fill="#575757"/>
<path d="M20.71 5.49H17.44C17.01 5.49 16.64 5.19 16.56 4.77L16.31 3.51C16.07 2.62 15.27 2 14.35 2H10.12C9.2 2 8.39 2.62 8.15 3.55L7.91 4.77C7.83 5.19 7.46 5.49 7.03 5.49H3.75C3.34 5.49 3 5.83 3 6.24C3 6.65 3.34 6.99 3.75 6.99H20.71C21.12 6.99 21.46 6.65 21.46 6.24C21.46 5.83 21.12 5.49 20.71 5.49ZM9.37 5.06L9.6 3.89C9.66 3.66 9.87 3.5 10.11 3.5H14.34C14.58 3.5 14.79 3.66 14.84 3.85L15.08 5.07C15.11 5.22 15.15 5.36 15.21 5.5H9.23C9.29 5.36 9.33 5.22 9.36 5.07L9.37 5.06Z" fill="#575757"/>
</g>
</g>
</svg>
