<svg width="24" height="24" viewBox="0 0 24 24" fill="none" xmlns="http://www.w3.org/2000/svg">
<g id="Icon">
<rect width="24" height="24" fill="transparent"/>
<g id="Vector">
<path fill-rule="evenodd" clip-rule="evenodd" d="M20 12.2741C20 12.6883 19.6642 13.0241 19.25 13.0241H4.25C3.83579 13.0241 3.5 12.6883 3.5 12.2741C3.5 11.8599 3.83579 11.5241 4.25 11.5241H19.25C19.6642 11.5241 20 11.8599 20 12.2741Z" fill="#575757"/>
<path fill-rule="evenodd" clip-rule="evenodd" d="M10.8312 5.72028C11.1235 6.01378 11.1225 6.48865 10.829 6.78094L5.31271 12.2745L10.829 17.767C11.1225 18.0593 11.1235 18.5342 10.8313 18.8277C10.539 19.1212 10.0641 19.1222 9.77061 18.83L3.72061 12.806C3.57927 12.6652 3.50001 12.4736 3.5 12.2741C3.49999 12.0747 3.57924 11.8838 3.72057 11.7431L9.77057 5.71808C10.0641 5.4258 10.5389 5.42678 10.8312 5.72028Z" fill="#575757"/>
</g>
</g>
</svg>
