<svg width="25" height="24" viewBox="0 0 25 24" fill="none" xmlns="http://www.w3.org/2000/svg">
<g id="Icon">
<g id="Vector">
<path fill-rule="evenodd" clip-rule="evenodd" d="M7.51073 15.2201C8.94068 14.7407 10.835 14.5961 12.7847 14.5961C14.7462 14.5961 16.6412 14.7463 18.0692 15.232C18.7872 15.4762 19.4418 15.823 19.9235 16.3278C20.4224 16.8508 20.7043 17.5121 20.7043 18.2937C20.7043 19.077 20.4199 19.7379 19.9181 20.2589C19.434 20.7614 18.777 21.1049 18.0584 21.346C16.6286 21.8255 14.7345 21.9704 12.7847 21.9704C10.8233 21.9704 8.92815 21.8204 7.49988 21.3349C6.78181 21.0908 6.12701 20.744 5.64521 20.2391C5.14612 19.716 4.86426 19.0546 4.86426 18.2728C4.86426 17.4893 5.14866 16.8282 5.65063 16.3071C6.1348 15.8046 6.79195 15.4611 7.51073 15.2201ZM6.7309 17.3478C6.49272 17.5951 6.36426 17.8853 6.36426 18.2728C6.36426 18.6619 6.49264 18.9544 6.73042 19.2036C6.9855 19.4709 7.3942 19.7146 7.98268 19.9147C9.16751 20.3175 10.8576 20.4704 12.7847 20.4704C14.7026 20.4704 16.3932 20.3224 17.5813 19.9238C18.1716 19.7259 18.5818 19.484 18.8377 19.2183C19.0759 18.9711 19.2043 18.6809 19.2043 18.2937C19.2043 17.9049 19.076 17.6125 18.8382 17.3633C18.5832 17.096 18.1746 16.8522 17.5862 16.6521C16.4016 16.2492 14.7118 16.0961 12.7847 16.0961C10.8668 16.0961 9.17593 16.2439 7.98755 16.6423C7.39716 16.8403 6.98687 17.0821 6.7309 17.3478Z" fill="#575757"/>
<path fill-rule="evenodd" clip-rule="evenodd" d="M7.47426 7.40841C7.47491 4.47619 9.85275 2.1001 12.7847 2.1001C15.7173 2.1001 18.0943 4.47704 18.0943 7.40962C18.0943 10.342 15.7175 12.7201 12.7847 12.7201H12.7524L12.7499 12.7201C9.8271 12.7102 7.46501 10.3317 7.47426 7.40841ZM7.47426 7.40841C7.47426 7.40801 7.47426 7.4076 7.47426 7.4072L8.18854 7.40962H7.47426C7.47426 7.40922 7.47426 7.40881 7.47426 7.40841ZM12.7847 3.52867C10.6409 3.52867 8.90283 5.26621 8.90283 7.40962V7.41204C8.8956 9.54689 10.6203 11.2837 12.7537 11.2915H12.7847C14.9281 11.2915 16.6657 9.55342 16.6657 7.40962C16.6657 5.26602 14.9283 3.52867 12.7847 3.52867Z" fill="#575757"/>
</g>
</g>
</svg>
