<svg width="20" height="20" viewBox="0 0 20 20" fill="none" xmlns="http://www.w3.org/2000/svg">
<g id="Icon">
<g id="Vector">
<path fill-rule="evenodd" clip-rule="evenodd" d="M12.7648 2.79556C12.4627 2.67533 12.013 2.60748 11.5633 2.56552C11.0911 2.52145 10.5431 2.5 10.0002 2.5C9.45738 2.5 8.90927 2.52145 8.43696 2.56552C7.9872 2.60748 7.53718 2.67541 7.23503 2.79556C6.60335 3.04698 6.23924 3.58905 6.01264 3.9949C5.93105 4.14104 5.85301 4.2974 5.7882 4.42725C5.76312 4.47749 5.74003 4.52376 5.71947 4.56394C5.63056 4.73773 5.58465 4.80693 5.5637 4.82976C5.4673 4.93454 5.34313 5.01191 5.2128 5.06317C5.07859 5.11596 4.96496 5.13042 4.91449 5.13042C3.12111 5.13042 1.66699 6.58428 1.66699 8.37708V13.2063C1.66699 15.493 3.52088 17.3479 5.80866 17.3479H14.192C16.4788 17.3479 18.3337 15.4931 18.3337 13.2063V8.37708C18.3337 6.58428 16.8795 5.13042 15.0862 5.13042C15.0351 5.13042 14.9213 5.11589 14.7872 5.06317C14.657 5.01196 14.5333 4.93474 14.4375 4.83031C14.4164 4.8074 14.3699 4.73754 14.2809 4.56373C14.2604 4.52359 14.2373 4.47737 14.2122 4.4272C14.1473 4.29731 14.0692 4.1409 13.9875 3.99467C13.7607 3.58886 13.3963 3.04693 12.7648 2.79556ZM7.69729 3.95694C7.81651 3.9096 8.10547 3.85187 8.55309 3.81011C8.97841 3.77043 9.48671 3.75 10.0002 3.75C10.5137 3.75 11.022 3.77043 11.4472 3.81011C11.895 3.8519 12.1837 3.90967 12.3025 3.95694C12.5126 4.04057 12.6979 4.24948 12.8963 4.60449C12.9634 4.72451 13.0194 4.83674 13.0788 4.95568C13.0868 4.97171 13.095 4.98819 13.1032 5.00449C13.1241 5.04625 13.1456 5.08904 13.1683 5.13346C13.2507 5.29434 13.3655 5.51093 13.5165 5.67552C14.0022 6.20471 14.676 6.38042 15.0862 6.38042C16.1894 6.38042 17.0837 7.27489 17.0837 8.37708V13.2063C17.0837 14.8027 15.7885 16.0979 14.192 16.0979H5.80866C4.21143 16.0979 2.91699 14.8028 2.91699 13.2063V8.37708C2.91699 7.27489 3.81121 6.38042 4.91449 6.38042C5.32413 6.38042 5.99795 6.20397 6.48413 5.67552C6.63526 5.51084 6.74998 5.29415 6.8323 5.13325L6.9219 4.95518C6.98116 4.83634 7.03708 4.72421 7.10405 4.60426C7.30219 4.24939 7.48738 4.04057 7.69729 3.95694Z" fill="currentColor"/>
<path fill-rule="evenodd" clip-rule="evenodd" d="M13.7464 7.91683C13.7464 7.4566 14.1195 7.0835 14.5797 7.0835H14.5872C15.0475 7.0835 15.4206 7.4566 15.4206 7.91683C15.4206 8.37707 15.0475 8.75017 14.5872 8.75017H14.5797C14.1195 8.75017 13.7464 8.37707 13.7464 7.91683Z" fill="currentColor"/>
<path fill-rule="evenodd" clip-rule="evenodd" d="M6.72591 10.9402C6.72591 9.13166 8.19156 7.666 10.0001 7.666C11.8086 7.666 13.2742 9.13166 13.2742 10.9402C13.2742 12.7487 11.8086 14.2143 10.0001 14.2143C8.19156 14.2143 6.72591 12.7487 6.72591 10.9402ZM10.0001 8.916C8.88192 8.916 7.97591 9.82201 7.97591 10.9402C7.97591 12.0583 8.88192 12.9643 10.0001 12.9643C11.1182 12.9643 12.0242 12.0583 12.0242 10.9402C12.0242 9.82201 11.1182 8.916 10.0001 8.916Z" fill="currentColor"/>
</g>
</g>
</svg>
