<svg width="25" height="24" viewBox="0 0 25 24" fill="none" xmlns="http://www.w3.org/2000/svg">
<g id="Icon">
<g id="Vector">
<path fill-rule="evenodd" clip-rule="evenodd" d="M7.94677 16.2236C7.94677 15.8094 8.28256 15.4736 8.69677 15.4736H15.9168C16.331 15.4736 16.6668 15.8094 16.6668 16.2236C16.6668 16.6378 16.331 16.9736 15.9168 16.9736H8.69677C8.28256 16.9736 7.94677 16.6378 7.94677 16.2236Z" fill="#575757"/>
<path fill-rule="evenodd" clip-rule="evenodd" d="M7.94677 12.0371C7.94677 11.6229 8.28256 11.2871 8.69677 11.2871H15.9168C16.331 11.2871 16.6668 11.6229 16.6668 12.0371C16.6668 12.4513 16.331 12.7871 15.9168 12.7871H8.69677C8.28256 12.7871 7.94677 12.4513 7.94677 12.0371Z" fill="#575757"/>
<path fill-rule="evenodd" clip-rule="evenodd" d="M7.94687 7.8603C7.94687 7.44609 8.28266 7.1103 8.69687 7.1103H11.4519C11.8661 7.1103 12.2019 7.44609 12.2019 7.8603C12.2019 8.27451 11.8661 8.6103 11.4519 8.6103H8.69687C8.28266 8.6103 7.94687 8.27451 7.94687 7.8603Z" fill="#575757"/>
<path fill-rule="evenodd" clip-rule="evenodd" d="M16.1092 2C17.6696 2 19.0029 2.51495 19.9453 3.48761C20.8849 4.45737 21.3662 5.80983 21.3662 7.357V16.553C21.3662 18.0929 20.8884 19.4393 19.9565 20.4075C19.0219 21.3785 17.6992 21.8974 16.1508 21.907L16.1462 21.907L8.45782 21.91C6.89738 21.91 5.56363 21.395 4.62145 20.4223C3.68212 19.4525 3.20117 18.1001 3.20117 16.553V7.357C3.20117 5.81725 3.67863 4.47105 4.61029 3.50304C5.54474 2.53213 6.86724 2.01355 8.41555 2.00401L8.42017 2.00399L16.1092 2ZM16.1092 3.5C17.3327 3.50004 18.253 3.89658 18.868 4.53139C19.4859 5.16913 19.8662 6.12017 19.8662 7.357V16.553C19.8662 17.7831 19.4889 18.7302 18.8758 19.3673C18.2658 20.0011 17.3541 20.3991 16.1435 20.407L16.1416 20.407L8.45723 20.41C7.23367 20.41 6.31372 20.0135 5.6989 19.3787C5.08123 18.741 4.70117 17.7899 4.70117 16.553V7.357C4.70117 6.12675 5.07822 5.17995 5.69105 4.54321C6.30076 3.90972 7.21209 3.51189 8.42276 3.504L8.42479 3.50399L16.1092 3.5Z" fill="#575757"/>
</g>
</g>
</svg>
