<svg width="25" height="24" viewBox="0 0 25 24" fill="none" xmlns="http://www.w3.org/2000/svg">
<g id="Icon">
<g id="Vector">
<path fill-rule="evenodd" clip-rule="evenodd" d="M12.4004 3.50049C7.7056 3.50049 3.90039 7.3057 3.90039 12.0005C3.90039 16.6953 7.7056 20.5005 12.4004 20.5005C17.0952 20.5005 20.9004 16.6953 20.9004 12.0005C20.9004 7.3057 17.0952 3.50049 12.4004 3.50049ZM2.40039 12.0005C2.40039 6.47727 6.87718 2.00049 12.4004 2.00049C17.9236 2.00049 22.4004 6.47727 22.4004 12.0005C22.4004 17.5237 17.9236 22.0005 12.4004 22.0005C6.87718 22.0005 2.40039 17.5237 2.40039 12.0005Z" fill="#575757"/>
<path fill-rule="evenodd" clip-rule="evenodd" d="M12.062 7.09689C12.4762 7.09689 12.812 7.43267 12.812 7.84689V12.268L16.2162 14.2988C16.572 14.511 16.6883 14.9714 16.4761 15.3271C16.2639 15.6829 15.8035 15.7992 15.4478 15.587L11.6778 13.338C11.4509 13.2027 11.312 12.958 11.312 12.6939V7.84689C11.312 7.43267 11.6478 7.09689 12.062 7.09689Z" fill="#575757"/>
</g>
</g>
</svg>
