<svg width="20" height="20" viewBox="0 0 20 20" fill="none" xmlns="http://www.w3.org/2000/svg">
<g id="Icon">
<g id="Vector">
<path fill-rule="evenodd" clip-rule="evenodd" d="M14.211 10.8329C14.211 11.178 13.9312 11.4579 13.586 11.4579L9.99935 11.4578C9.65417 11.4578 9.37435 11.178 9.37435 10.8328V4.99952C9.37435 4.65434 9.65417 4.37452 9.99935 4.37452C10.3445 4.37452 10.6243 4.65434 10.6243 4.99952V10.2078L13.586 10.2079C13.9312 10.2079 14.211 10.4877 14.211 10.8329ZM18.5314 8.09207C18.2042 8.20184 17.8499 8.02552 17.7401 7.69826C17.6284 7.36504 17.4986 7.04191 17.3508 6.72872C17.2035 6.41655 17.3371 6.04408 17.6493 5.89678C17.9615 5.74948 18.334 5.88313 18.4813 6.1953C18.6501 6.55323 18.7981 6.92177 18.9252 7.30076C19.035 7.62802 18.8587 7.9823 18.5314 8.09207ZM16.9696 4.85154C16.708 5.07672 16.3133 5.04719 16.0882 4.78558C15.8414 4.49894 15.5784 4.23102 15.299 3.98162C15.0415 3.75177 15.0191 3.35667 15.2489 3.09916C15.4788 2.84164 15.8739 2.81922 16.1314 3.04908C16.452 3.33523 16.7534 3.64231 17.0355 3.97012C17.2607 4.23173 17.2312 4.62635 16.9696 4.85154ZM14.151 2.36516C14.0033 2.67718 13.6307 2.81043 13.3187 2.6628C12.9901 2.50731 12.6519 2.37296 12.3061 2.26057C11.9779 2.15385 11.7983 1.80123 11.905 1.47296C12.0117 1.1447 12.3643 0.965089 12.6926 1.0718C13.0889 1.20064 13.4766 1.35465 13.8533 1.5329C14.1653 1.68053 14.2986 2.05315 14.151 2.36516Z" fill="#0189FF"/>
<path fill-rule="evenodd" clip-rule="evenodd" d="M18.9577 9.99952C18.9577 14.9472 14.947 18.9578 9.99935 18.9578C5.05167 18.9578 1.04102 14.9472 1.04102 9.99951C1.04102 5.05184 5.05167 1.04118 9.99935 1.04118C10.3445 1.04118 10.6243 1.321 10.6243 1.66618C10.6243 2.01136 10.3445 2.29118 9.99935 2.29118C5.74203 2.29118 2.29102 5.74219 2.29102 9.99951C2.29102 14.2568 5.74203 17.7078 9.99935 17.7078C14.2567 17.7078 17.7077 14.2568 17.7077 9.99952C17.7077 9.65434 17.9875 9.37452 18.3327 9.37452C18.6779 9.37452 18.9577 9.65434 18.9577 9.99952Z" fill="#0189FF"/>
</g>
</g>
</svg>
