<svg width="24" height="24" viewBox="0 0 24 24" fill="none" xmlns="http://www.w3.org/2000/svg">
<g id="Icon">
<g id="Vector">
<path fill-rule="evenodd" clip-rule="evenodd" d="M19.5304 4.46967C19.8233 4.76256 19.8233 5.23744 19.5304 5.53033L5.53033 19.5304C5.23744 19.8233 4.76256 19.8233 4.46967 19.5304C4.17678 19.2375 4.17678 18.7626 4.46967 18.4697L18.4697 4.46967C18.7626 4.17678 19.2375 4.17678 19.5304 4.46967Z" fill="#575757"/>
<path fill-rule="evenodd" clip-rule="evenodd" d="M19.5304 19.5304C19.2375 19.8233 18.7626 19.8233 18.4697 19.5304L4.46967 5.53035C4.17678 5.23745 4.17678 4.76258 4.46967 4.46969C4.76256 4.17679 5.23744 4.17679 5.53033 4.46969L19.5304 18.4697C19.8233 18.7626 19.8233 19.2375 19.5304 19.5304Z" fill="#575757"/>
</g>
</g>
</svg>
