<svg width="24" height="24" viewBox="0 0 24 24" fill="none" xmlns="http://www.w3.org/2000/svg">
<g id="Regular/default">
<g id="Vector">
<path fill-rule="evenodd" clip-rule="evenodd" d="M8.64383 12.9142C8.64383 12.5 8.97962 12.1642 9.39383 12.1642H14.2938C14.708 12.1642 15.0438 12.5 15.0438 12.9142C15.0438 13.3284 14.708 13.6642 14.2938 13.6642H9.39383C8.97962 13.6642 8.64383 13.3284 8.64383 12.9142Z" fill="#E6F3FF"/>
<path fill-rule="evenodd" clip-rule="evenodd" d="M11.8446 9.7139C12.2588 9.7139 12.5946 10.0497 12.5946 10.4639V15.3639C12.5946 15.7781 12.2588 16.1139 11.8446 16.1139C11.4304 16.1139 11.0946 15.7781 11.0946 15.3639V10.4639C11.0946 10.0497 11.4304 9.7139 11.8446 9.7139Z" fill="#E6F3FF"/>
<path fill-rule="evenodd" clip-rule="evenodd" d="M8.08631 2.01181H14.7379C14.9421 2.01181 15.1375 2.09509 15.279 2.24241L20.344 7.51841C20.4781 7.65808 20.5529 7.84419 20.5529 8.03781V17.2012C20.5693 19.7005 18.6014 21.7628 16.1043 21.8642C16.0942 21.8646 16.0841 21.8648 16.0739 21.8648H8.09496C8.07017 21.8654 8.04846 21.8653 8.03278 21.8652C8.00893 21.865 8.00482 21.8648 7.99293 21.8648L7.97625 21.8646C5.45197 21.8085 3.4506 19.719 3.50093 17.196V6.49081L3.50114 6.47314C3.55976 3.98601 5.59883 2.00304 8.08631 2.01181ZM5.00093 6.50012V17.2038L5.00075 17.2201C4.9638 18.9176 6.30804 20.3244 8.00451 20.3649L8.02367 20.365L8.04508 20.3652L8.05724 20.3652C8.05987 20.3652 8.06075 20.3652 8.06075 20.3652C8.06881 20.3649 8.07687 20.3648 8.08493 20.3648H16.0579C17.7411 20.2889 19.065 18.8958 19.0529 17.2092L19.0529 17.2038L19.0529 8.33954L14.4183 3.51181H8.08204C6.41299 3.50539 5.04466 4.83366 5.00093 6.50012Z" fill="#E6F3FF"/>
<path fill-rule="evenodd" clip-rule="evenodd" d="M14.4752 2C14.8894 2 15.2252 2.33579 15.2252 2.75V5.659C15.2252 6.66521 16.0381 7.48066 17.0444 7.484H19.7982C20.2124 7.484 20.5482 7.81979 20.5482 8.234C20.5482 8.64821 20.2124 8.984 19.7982 8.984H17.0432L17.0411 8.984C15.2078 8.97883 13.7252 7.49248 13.7252 5.659V2.75C13.7252 2.33579 14.061 2 14.4752 2Z" fill="#E6F3FF"/>
</g>
</g>
</svg>
