<svg width="25" height="24" viewBox="0 0 25 24" fill="none" xmlns="http://www.w3.org/2000/svg">
<g id="Icon">
<g id="Vector">
<path fill-rule="evenodd" clip-rule="evenodd" d="M17.6415 9.19984C17.9689 9.45354 18.0287 9.92464 17.775 10.2521L14.8459 14.0324C14.7236 14.1903 14.5432 14.2929 14.345 14.3174C14.1467 14.3419 13.9469 14.2862 13.7898 14.1628L10.9713 11.9489L8.44014 15.2386C8.18755 15.5669 7.71666 15.6283 7.38837 15.3757C7.06009 15.1231 6.99872 14.6522 7.25131 14.3239L10.2444 10.4338C10.3665 10.2751 10.547 10.1718 10.7457 10.1469C10.9443 10.122 11.1447 10.1776 11.3022 10.3013L14.1226 12.5168L16.5892 9.33334C16.8429 9.00592 17.314 8.94614 17.6415 9.19984Z" fill="#575757"/>
<path fill-rule="evenodd" clip-rule="evenodd" d="M20.5963 3.02783C19.9489 3.02783 19.4241 3.55264 19.4241 4.20003C19.4241 4.84742 19.9489 5.37223 20.5963 5.37223C21.2437 5.37223 21.7685 4.84742 21.7685 4.20003C21.7685 3.55264 21.2437 3.02783 20.5963 3.02783ZM17.9241 4.20003C17.9241 2.72422 19.1205 1.52783 20.5963 1.52783C22.0721 1.52783 23.2685 2.72422 23.2685 4.20003C23.2685 5.67584 22.0721 6.87223 20.5963 6.87223C19.1205 6.87223 17.9241 5.67584 17.9241 4.20003Z" fill="#575757"/>
<path fill-rule="evenodd" clip-rule="evenodd" d="M4.13896 4.05284C5.13881 2.97431 6.56574 2.36994 8.25762 2.36994H15.5254C15.9396 2.36994 16.2754 2.70572 16.2754 3.11994C16.2754 3.53415 15.9396 3.86994 15.5254 3.86994H8.25762C6.93807 3.86994 5.92564 4.33193 5.23899 5.07262C4.54639 5.81972 4.12891 6.91226 4.12891 8.2641V16.3465C4.12891 17.7021 4.53942 18.7914 5.226 19.5342C5.90598 20.2698 6.91675 20.7315 8.25762 20.7315H16.8617C18.1823 20.7315 19.1948 20.2711 19.881 19.5327C20.5731 18.7881 20.9905 17.6982 20.9905 16.3465V9.30758C20.9905 8.89337 21.3263 8.55758 21.7405 8.55758C22.1547 8.55758 22.4905 8.89337 22.4905 9.30758V16.3465C22.4905 18.0062 21.9742 19.4838 20.9798 20.5539C19.9795 21.6301 18.5526 22.2315 16.8617 22.2315H8.25762C6.55045 22.2315 5.12186 21.6314 4.12449 20.5524C3.13372 19.4805 2.62891 18.0023 2.62891 16.3465V8.2641C2.62891 6.6045 3.14506 5.12496 4.13896 4.05284Z" fill="#575757"/>
</g>
</g>
</svg>
