<svg width="272" height="264" viewBox="0 0 272 264" fill="none" xmlns="http://www.w3.org/2000/svg">
<path d="M132.734 257C195.382 257 246.169 206.213 246.169 143.565C246.169 80.9172 195.382 30.1309 132.734 30.1309C70.0861 30.1309 19.2998 80.9172 19.2998 143.565C19.2998 206.213 70.0861 257 132.734 257Z" fill="url(#paint0_linear_92_3141)"/>
<g filter="url(#filter0_f_92_3141)">
<ellipse cx="142.962" cy="234.759" rx="68.9503" ry="7.11746" fill="#C4C1FE"/>
</g>
<path d="M255.235 172.461C254.717 170.317 251.667 170.317 251.15 172.461L249.859 177.81C249.674 178.576 249.075 179.174 248.309 179.359L242.96 180.65C240.816 181.168 240.816 184.217 242.96 184.735L248.309 186.026C249.075 186.211 249.674 186.809 249.859 187.575L251.15 192.924C251.667 195.068 254.717 195.068 255.235 192.924L256.526 187.575C256.711 186.809 257.309 186.211 258.075 186.026L263.424 184.735C265.568 184.217 265.568 181.168 263.424 180.65L258.075 179.359C257.309 179.174 256.711 178.576 256.526 177.81L255.235 172.461Z" fill="url(#paint1_linear_92_3141)"/>
<path d="M21.2346 92.4607C20.717 90.3167 17.6674 90.3167 17.1498 92.4607L15.8586 97.8096C15.6737 98.5758 15.0755 99.174 14.3093 99.359L8.96039 100.65C6.81636 101.168 6.81636 104.217 8.96039 104.735L14.3093 106.026C15.0755 106.211 15.6737 106.809 15.8586 107.575L17.1498 112.924C17.6674 115.068 20.717 115.068 21.2346 112.924L22.5258 107.575C22.7107 106.809 23.309 106.211 24.0751 106.026L29.424 104.735C31.5681 104.217 31.5681 101.168 29.424 100.65L24.0751 99.359C23.309 99.174 22.7107 98.5758 22.5258 97.8096L21.2346 92.4607Z" fill="url(#paint2_linear_92_3141)"/>
<path d="M249.801 113.507C250.89 112.713 250.711 111.037 249.478 110.491L242.69 107.484C241.458 106.938 240.096 107.93 240.24 109.271L241.029 116.653C241.172 117.994 242.713 118.676 243.802 117.882L249.801 113.507Z" fill="url(#paint3_linear_92_3141)"/>
<path d="M16.872 185.326C15.5655 184.995 14.3903 186.202 14.7566 187.499L16.7746 194.645C17.1409 195.942 18.774 196.356 19.7141 195.39L24.8934 190.07C25.8335 189.104 25.3756 187.483 24.0692 187.151L16.872 185.326Z" fill="url(#paint4_linear_92_3141)"/>
<circle cx="5.452" cy="5.452" r="4.13885" transform="matrix(-1 0 0 1 46.4043 234)" stroke="url(#paint5_linear_92_3141)" stroke-width="2.6263"/>
<circle cx="5.452" cy="5.452" r="4.13885" transform="matrix(-1 0 0 1 51.4043 133)" stroke="url(#paint6_linear_92_3141)" stroke-width="2.6263"/>
<circle cx="5.452" cy="5.452" r="4.13885" transform="matrix(-1 0 0 1 234.383 193.832)" stroke="url(#paint7_linear_92_3141)" stroke-width="2.6263"/>
<g filter="url(#filter1_d_92_3141)">
<path fill-rule="evenodd" clip-rule="evenodd" d="M89.3014 103.842C88.3136 103.931 87.3132 103.977 86.3021 103.977C68.0814 103.977 53.3105 89.2059 53.3105 70.9852C53.3105 52.7644 68.0814 37.9936 86.3021 37.9936C86.5343 37.9936 86.7658 37.996 86.9968 38.0008C92.1868 20.0922 108.71 7 128.292 7C150.909 7 169.446 24.4654 171.153 46.6445C173.164 46.2095 175.221 45.9885 177.289 45.9885C181.1 45.9878 184.874 46.7376 188.395 48.1949C191.915 49.6523 195.114 51.7887 197.808 54.482C200.502 57.1753 202.639 60.3726 204.095 63.8914C205.552 67.4101 206.3 71.1811 206.297 74.989C206.297 78.9415 207.175 82.8447 208.868 86.4168C210.561 89.989 213.027 93.141 216.088 95.6451L226.266 103.974H183.405L183.342 103.974L183.278 103.974C183.278 103.974 183.278 103.974 183.277 103.974V103.974H89.3014V103.842Z" fill="url(#paint8_linear_92_3141)"/>
</g>
<path fill-rule="evenodd" clip-rule="evenodd" d="M117.595 56.2832C117.595 62.1864 121.981 66.9718 127.393 66.9718C132.804 66.9718 137.19 62.1864 137.19 56.2832H117.595Z" fill="#8A84FA"/>
<path d="M114.032 53.6103C116.491 53.6103 118.485 51.6163 118.485 49.1567C118.485 46.6971 116.491 44.7031 114.032 44.7031C111.572 44.7031 109.578 46.6971 109.578 49.1567C109.578 51.6163 111.572 53.6103 114.032 53.6103Z" fill="url(#paint9_linear_92_3141)"/>
<path d="M140.753 53.6103C143.213 53.6103 145.207 51.6163 145.207 49.1567C145.207 46.6971 143.213 44.7031 140.753 44.7031C138.294 44.7031 136.3 46.6971 136.3 49.1567C136.3 51.6163 138.294 53.6103 140.753 53.6103Z" fill="url(#paint10_linear_92_3141)"/>
<g filter="url(#filter2_b_92_3141)">
<rect x="66.5654" y="127.998" width="113.879" height="89.4766" rx="26.5399" fill="url(#paint11_linear_92_3141)"/>
</g>
<g filter="url(#filter3_b_92_3141)">
<rect x="82.834" y="152.401" width="113.879" height="89.4766" rx="26.5399" fill="#BFB5FF" fill-opacity="0.6"/>
</g>
<path d="M171.737 233.744L106.515 233.744C100.38 233.744 97.3122 233.744 95.9839 232.052C95.6453 231.62 95.3899 231.13 95.2307 230.605C94.606 228.546 96.3652 226.033 99.8834 221.007L113.707 201.259C116.094 197.849 117.288 196.144 118.959 195.768C119.395 195.669 119.843 195.638 120.289 195.674C121.995 195.813 123.415 197.335 126.256 200.378L141.518 216.731C144.199 219.602 145.539 221.038 147.174 221.215C147.602 221.261 148.035 221.245 148.459 221.166C150.076 220.865 151.303 219.332 153.757 216.264L157.855 211.142C160.485 207.855 161.8 206.211 163.505 205.949C163.95 205.881 164.402 205.881 164.847 205.949C166.552 206.211 167.867 207.855 170.497 211.142L178.058 220.593C182.165 225.727 184.219 228.294 183.653 230.446C183.51 230.992 183.263 231.505 182.926 231.958C181.6 233.744 178.312 233.744 171.737 233.744Z" fill="url(#paint12_linear_92_3141)" fill-opacity="0.9"/>
<rect x="147.907" y="168.67" width="24.4027" height="24.4027" rx="12.2014" fill="url(#paint13_linear_92_3141)" fill-opacity="0.9"/>
<g filter="url(#filter4_f_92_3141)">
<ellipse cx="131.319" cy="141.341" rx="11.5659" ry="21.3524" fill="#40DFF0" fill-opacity="0.6"/>
</g>
<path fill-rule="evenodd" clip-rule="evenodd" d="M131.105 153.385C134.08 153.385 136.492 150.974 136.492 147.999L136.492 110.8L147.864 122.173C149.968 124.276 153.378 124.276 155.482 122.173C157.585 120.069 157.585 116.659 155.482 114.555L134.914 93.9873C132.81 91.8837 129.4 91.8837 127.296 93.9873L106.728 114.555C104.625 116.659 104.625 120.069 106.728 122.173C108.832 124.276 112.243 124.276 114.346 122.173L125.719 110.8L125.719 147.999C125.719 150.974 128.13 153.385 131.105 153.385Z" fill="url(#paint14_linear_92_3141)"/>
<defs>
<filter id="filter0_f_92_3141" x="52.1259" y="205.755" width="181.672" height="58.0065" filterUnits="userSpaceOnUse" color-interpolation-filters="sRGB">
<feFlood flood-opacity="0" result="BackgroundImageFix"/>
<feBlend mode="normal" in="SourceGraphic" in2="BackgroundImageFix" result="shape"/>
<feGaussianBlur stdDeviation="10.9429" result="effect1_foregroundBlur_92_3141"/>
</filter>
<filter id="filter1_d_92_3141" x="43.743" y="0.911568" width="192.091" height="116.112" filterUnits="userSpaceOnUse" color-interpolation-filters="sRGB">
<feFlood flood-opacity="0" result="BackgroundImageFix"/>
<feColorMatrix in="SourceAlpha" type="matrix" values="0 0 0 0 0 0 0 0 0 0 0 0 0 0 0 0 0 0 127 0" result="hardAlpha"/>
<feOffset dy="3.4791"/>
<feGaussianBlur stdDeviation="4.78377"/>
<feComposite in2="hardAlpha" operator="out"/>
<feColorMatrix type="matrix" values="0 0 0 0 0.346421 0 0 0 0 0.322361 0 0 0 0 0.879167 0 0 0 0.25 0"/>
<feBlend mode="normal" in2="BackgroundImageFix" result="effect1_dropShadow_92_3141"/>
<feBlend mode="normal" in="SourceGraphic" in2="effect1_dropShadow_92_3141" result="shape"/>
</filter>
<filter id="filter2_b_92_3141" x="48.8722" y="110.305" width="149.265" height="124.863" filterUnits="userSpaceOnUse" color-interpolation-filters="sRGB">
<feFlood flood-opacity="0" result="BackgroundImageFix"/>
<feGaussianBlur in="BackgroundImageFix" stdDeviation="8.84663"/>
<feComposite in2="SourceAlpha" operator="in" result="effect1_backgroundBlur_92_3141"/>
<feBlend mode="normal" in="SourceGraphic" in2="effect1_backgroundBlur_92_3141" result="shape"/>
</filter>
<filter id="filter3_b_92_3141" x="65.1407" y="134.708" width="149.265" height="124.863" filterUnits="userSpaceOnUse" color-interpolation-filters="sRGB">
<feFlood flood-opacity="0" result="BackgroundImageFix"/>
<feGaussianBlur in="BackgroundImageFix" stdDeviation="8.84663"/>
<feComposite in2="SourceAlpha" operator="in" result="effect1_backgroundBlur_92_3141"/>
<feBlend mode="normal" in="SourceGraphic" in2="effect1_backgroundBlur_92_3141" result="shape"/>
</filter>
<filter id="filter4_f_92_3141" x="97.8671" y="98.103" width="66.9035" height="86.4762" filterUnits="userSpaceOnUse" color-interpolation-filters="sRGB">
<feFlood flood-opacity="0" result="BackgroundImageFix"/>
<feBlend mode="normal" in="SourceGraphic" in2="BackgroundImageFix" result="shape"/>
<feGaussianBlur stdDeviation="10.9429" result="effect1_foregroundBlur_92_3141"/>
</filter>
<linearGradient id="paint0_linear_92_3141" x1="131.86" y1="-6.80618" x2="134.184" y2="391.558" gradientUnits="userSpaceOnUse">
<stop stop-color="white" stop-opacity="0"/>
<stop offset="1" stop-color="#9DB3FF"/>
</linearGradient>
<linearGradient id="paint1_linear_92_3141" x1="239.989" y1="190.025" x2="263.437" y2="145.332" gradientUnits="userSpaceOnUse">
<stop stop-color="#5149F2"/>
<stop offset="1" stop-color="#F7F7FF"/>
</linearGradient>
<linearGradient id="paint2_linear_92_3141" x1="5.98923" y1="110.025" x2="29.4365" y2="65.3324" gradientUnits="userSpaceOnUse">
<stop stop-color="#5149F2"/>
<stop offset="1" stop-color="#F7F7FF"/>
</linearGradient>
<linearGradient id="paint3_linear_92_3141" x1="240.884" y1="107.403" x2="260.439" y2="115.137" gradientUnits="userSpaceOnUse">
<stop stop-color="#5149F2"/>
<stop offset="1" stop-color="#F7F7FF"/>
</linearGradient>
<linearGradient id="paint4_linear_92_3141" x1="17.8651" y1="196.087" x2="11.3364" y2="176.097" gradientUnits="userSpaceOnUse">
<stop stop-color="#5149F2"/>
<stop offset="1" stop-color="#F7F7FF"/>
</linearGradient>
<linearGradient id="paint5_linear_92_3141" x1="9.30287" y1="7.59051" x2="2.46407" y2="-5.4447" gradientUnits="userSpaceOnUse">
<stop stop-color="#5149F2"/>
<stop offset="1" stop-color="#F7F7FF"/>
</linearGradient>
<linearGradient id="paint6_linear_92_3141" x1="9.30287" y1="7.59051" x2="2.46407" y2="-5.4447" gradientUnits="userSpaceOnUse">
<stop stop-color="#5149F2"/>
<stop offset="1" stop-color="#F7F7FF"/>
</linearGradient>
<linearGradient id="paint7_linear_92_3141" x1="9.30287" y1="7.59051" x2="2.46407" y2="-5.4447" gradientUnits="userSpaceOnUse">
<stop stop-color="#5149F2"/>
<stop offset="1" stop-color="#F7F7FF"/>
</linearGradient>
<linearGradient id="paint8_linear_92_3141" x1="73.5515" y1="66.1265" x2="182.153" y2="136.167" gradientUnits="userSpaceOnUse">
<stop stop-color="#EBEAFF"/>
<stop offset="1" stop-color="#9893FF"/>
</linearGradient>
<linearGradient id="paint9_linear_92_3141" x1="114.032" y1="44.7031" x2="114.032" y2="53.6103" gradientUnits="userSpaceOnUse">
<stop stop-color="#736CF6"/>
<stop offset="1" stop-color="#ADA9FF"/>
</linearGradient>
<linearGradient id="paint10_linear_92_3141" x1="140.753" y1="44.7031" x2="140.753" y2="53.6103" gradientUnits="userSpaceOnUse">
<stop stop-color="#736CF6"/>
<stop offset="1" stop-color="#ADA9FF"/>
</linearGradient>
<linearGradient id="paint11_linear_92_3141" x1="99.4153" y1="147.571" x2="181.419" y2="183.462" gradientUnits="userSpaceOnUse">
<stop stop-color="#917FFB"/>
<stop offset="1" stop-color="#3F2DAF"/>
</linearGradient>
<linearGradient id="paint12_linear_92_3141" x1="109.81" y1="213.489" x2="197.652" y2="242.147" gradientUnits="userSpaceOnUse">
<stop stop-color="white"/>
<stop offset="1" stop-color="white" stop-opacity="0"/>
</linearGradient>
<linearGradient id="paint13_linear_92_3141" x1="147.813" y1="174.241" x2="193.914" y2="204.767" gradientUnits="userSpaceOnUse">
<stop stop-color="white"/>
<stop offset="1" stop-color="white" stop-opacity="0"/>
</linearGradient>
<linearGradient id="paint14_linear_92_3141" x1="157.039" y1="153.239" x2="123.374" y2="97.0413" gradientUnits="userSpaceOnUse">
<stop stop-color="#49E2F2"/>
<stop offset="1" stop-color="#31D9EB"/>
</linearGradient>
</defs>
</svg>
