<svg width="301" height="231" viewBox="0 0 301 231" fill="none" xmlns="http://www.w3.org/2000/svg">
<g filter="url(#filter0_f_92_1421)">
<ellipse cx="147.986" cy="187.312" rx="110.607" ry="21.3375" fill="#1F88F8" fill-opacity="0.35"/>
</g>
<path d="M149.201 229.902C212.549 229.902 263.902 178.549 263.902 115.201C263.902 51.8534 212.549 0.5 149.201 0.5C85.8534 0.5 34.5 51.8534 34.5 115.201C34.5 178.549 85.8534 229.902 149.201 229.902Z" fill="url(#paint0_linear_92_1421)"/>
<g filter="url(#filter1_d_92_1421)">
<path d="M245.281 78.124L146.99 146.719L48.6992 78.124L138.677 15.3054C141.117 13.6047 144.02 12.6929 146.994 12.6929C149.968 12.6929 152.871 13.6047 155.311 15.3054L173.26 27.8528L177.959 31.1161L225.277 64.157L230.261 67.6569L245.281 78.124Z" fill="url(#paint1_linear_92_1421)"/>
</g>
<path d="M131.008 135.566L48.6992 194.094V78.124L131.008 135.566Z" fill="url(#paint2_linear_92_1421)"/>
<path d="M162.98 135.566L245.289 194.094V78.124L162.98 135.566Z" fill="url(#paint3_linear_92_1421)"/>
<path d="M48.6992 194.094L138.571 130.199C141.03 128.447 143.975 127.506 146.994 127.506C150.014 127.506 152.958 128.447 155.417 130.199L245.281 194.094H48.6992Z" fill="url(#paint4_linear_92_1421)"/>
<g filter="url(#filter2_d_92_1421)">
<path d="M59.0861 57.1099C44.0175 64.1586 27.825 68.4977 11.251 69.9281C13.4905 75.134 29.4028 101.193 76.6387 122.665C77.9156 122.861 107.412 109.139 123.6 99.7293C123.05 100.515 73.3187 82.2159 59.0861 57.1099Z" fill="url(#paint5_linear_92_1421)"/>
</g>
<path d="M60.2517 70.066C59.5583 69.5849 58.68 69.455 57.877 69.7148L31.513 78.2443C30.5686 78.5499 30.2321 79.7131 30.8676 80.4757C31.3793 81.0898 32.2169 81.3243 32.9731 81.0653L60.0097 71.8048C60.7727 71.5435 60.9143 70.5257 60.2517 70.066Z" fill="#C9DFFF"/>
<path d="M59.7946 80.5712C59.126 79.9433 58.1662 79.7341 57.2968 80.0266L39.0454 86.1691C38.2406 86.4399 37.9564 87.4329 38.4961 88.0885C38.937 88.6241 39.6636 88.8306 40.3203 88.607L59.4668 82.0879C60.1132 81.8678 60.2924 81.0385 59.7946 80.5712Z" fill="#C9DFFF"/>
<path d="M69.5908 85.7731C68.8931 85.2143 67.9545 85.0596 67.1143 85.365L46.091 93.0059C45.2658 93.3058 45.0175 94.3526 45.62 94.9911C46.0809 95.4797 46.7887 95.6464 47.4193 95.415L69.3294 87.3748C70.0105 87.1248 70.1571 86.2266 69.5908 85.7731Z" fill="#C9DFFF"/>
<path d="M76.9407 101.544C76.2944 100.83 75.2758 100.586 74.3758 100.929L62.3609 105.514C61.6231 105.795 61.3572 106.703 61.8262 107.338C62.2658 107.934 63.0493 108.161 63.7394 107.894L76.6176 102.906C77.173 102.691 77.3402 101.986 76.9407 101.544Z" fill="#C9DFFF"/>
<g filter="url(#filter3_d_92_1421)">
<path d="M233.269 93.4507C251.541 101.998 271.175 107.259 291.272 108.994C288.557 115.306 269.262 146.904 211.986 172.94C210.438 173.178 174.671 156.539 155.043 145.129C155.71 146.082 216.012 123.893 233.269 93.4507Z" fill="url(#paint6_linear_92_1421)"/>
</g>
<path d="M231.855 109.161C232.696 108.578 233.761 108.42 234.735 108.735L266.703 119.078C267.848 119.448 268.256 120.859 267.485 121.784C266.865 122.528 265.849 122.813 264.932 122.498L232.149 111.27C231.224 110.953 231.052 109.719 231.855 109.161Z" fill="#C9DFFF"/>
<path d="M222.906 117.675C223.717 116.913 224.88 116.66 225.935 117.014L248.065 124.462C249.041 124.791 249.386 125.995 248.731 126.79C248.197 127.439 247.316 127.69 246.52 127.419L223.303 119.514C222.52 119.247 222.302 118.241 222.906 117.675Z" fill="#C9DFFF"/>
<path d="M213.707 124.742C214.554 124.065 215.692 123.877 216.71 124.247L242.202 133.512C243.203 133.876 243.504 135.145 242.773 135.92C242.215 136.512 241.356 136.714 240.592 136.434L214.024 126.684C213.199 126.381 213.021 125.292 213.707 124.742Z" fill="#C9DFFF"/>
<path d="M193.009 138.882C193.793 138.015 195.028 137.719 196.119 138.136L210.688 143.695C211.583 144.036 211.905 145.137 211.336 145.907C210.803 146.629 209.853 146.905 209.017 146.581L193.401 140.533C192.728 140.272 192.525 139.417 193.009 138.882Z" fill="#C9DFFF"/>
<path d="M202.519 131.331C203.381 130.79 204.445 130.678 205.401 131.028L238.97 143.301C240.042 143.693 240.302 145.092 239.442 145.844C238.873 146.341 238.078 146.487 237.369 146.226L202.742 133.47C201.808 133.126 201.676 131.86 202.519 131.331Z" fill="#C9DFFF"/>
<path d="M84.2112 89.2201C83.5 88.774 82.6225 88.6816 81.834 88.9699L54.1504 99.092C53.2656 99.4155 53.0512 100.569 53.7608 101.189C54.2301 101.599 54.8857 101.72 55.4704 101.504L84.0277 90.9845C84.7978 90.7008 84.9065 89.6562 84.2112 89.2201Z" fill="#C9DFFF"/>
<path d="M252.386 27.5964C252.386 30.2419 250.242 32.3865 247.596 32.3865C244.951 32.3865 242.806 30.2419 242.806 27.5964C242.806 24.951 244.951 22.8064 247.596 22.8064C250.242 22.8064 252.386 24.951 252.386 27.5964Z" stroke="url(#paint7_linear_92_1421)" stroke-width="2.61276"/>
<circle cx="69.6023" cy="205.166" r="4.79006" stroke="url(#paint8_linear_92_1421)" stroke-width="2.61276"/>
<circle cx="216.788" cy="214.746" r="4.79006" stroke="url(#paint9_linear_92_1421)" stroke-width="2.61276"/>
<path d="M85.8585 32.4318C86.3734 30.2988 89.4073 30.2988 89.9222 32.4318L91.6551 39.6106C91.8391 40.3728 92.4343 40.9679 93.1965 41.1519L100.375 42.8849C102.508 43.3998 102.508 46.4337 100.375 46.9486L93.1965 48.6815C92.4343 48.8655 91.8391 49.4606 91.6551 50.2229L89.9222 57.4017C89.4073 59.5347 86.3734 59.5347 85.8585 57.4017L84.1256 50.2229C83.9416 49.4606 83.3464 48.8655 82.5842 48.6815L75.4054 46.9486C73.2724 46.4337 73.2724 43.3998 75.4054 42.8849L82.5842 41.1519C83.3464 40.9679 83.9416 40.3728 84.1256 39.6106L85.8585 32.4318Z" fill="url(#paint10_linear_92_1421)"/>
<path d="M260.37 183.917C260.885 181.784 263.919 181.784 264.434 183.917L266.167 191.096C266.351 191.858 266.946 192.453 267.708 192.637L274.887 194.37C277.02 194.885 277.02 197.919 274.887 198.434L267.708 200.167C266.946 200.351 266.351 200.946 266.167 201.708L264.434 208.887C263.919 211.02 260.885 211.02 260.37 208.887L258.637 201.708C258.453 200.946 257.858 200.351 257.096 200.167L249.917 198.434C247.784 197.919 247.784 194.885 249.917 194.37L257.096 192.637C257.858 192.453 258.453 191.858 258.637 191.096L260.37 183.917Z" fill="url(#paint11_linear_92_1421)"/>
<path d="M37.7322 167.114C39.0562 166.902 40.1133 168.203 39.6349 169.456L36.4058 177.911C35.9275 179.164 34.2725 179.429 33.4268 178.388L27.7189 171.364C26.8733 170.323 27.4712 168.758 28.7952 168.546L37.7322 167.114Z" fill="url(#paint12_linear_92_1421)"/>
<path d="M263.828 80.9219C263.496 79.6226 264.696 78.4519 265.987 78.8147L274.7 81.2633C275.991 81.626 276.405 83.2502 275.446 84.1867L268.968 90.5084C268.009 91.4449 266.395 90.9915 266.064 89.6922L263.828 80.9219Z" fill="url(#paint13_linear_92_1421)"/>
<defs>
<filter id="filter0_f_92_1421" x="15.6059" y="144.202" width="264.759" height="86.2213" filterUnits="userSpaceOnUse" color-interpolation-filters="sRGB">
<feFlood flood-opacity="0" result="BackgroundImageFix"/>
<feBlend mode="normal" in="SourceGraphic" in2="BackgroundImageFix" result="shape"/>
<feGaussianBlur stdDeviation="10.8865" result="effect1_foregroundBlur_92_1421"/>
</filter>
<filter id="filter1_d_92_1421" x="45.2155" y="12.6929" width="203.549" height="140.993" filterUnits="userSpaceOnUse" color-interpolation-filters="sRGB">
<feFlood flood-opacity="0" result="BackgroundImageFix"/>
<feColorMatrix in="SourceAlpha" type="matrix" values="0 0 0 0 0 0 0 0 0 0 0 0 0 0 0 0 0 0 127 0" result="hardAlpha"/>
<feOffset dy="3.48368"/>
<feGaussianBlur stdDeviation="1.74184"/>
<feComposite in2="hardAlpha" operator="out"/>
<feColorMatrix type="matrix" values="0 0 0 0 0 0 0 0 0 0 0 0 0 0 0 0 0 0 0.25 0"/>
<feBlend mode="normal" in2="BackgroundImageFix" result="effect1_dropShadow_92_1421"/>
<feBlend mode="normal" in="SourceGraphic" in2="effect1_dropShadow_92_1421" result="shape"/>
</filter>
<filter id="filter2_d_92_1421" x="0.798963" y="50.1425" width="133.252" height="86.4587" filterUnits="userSpaceOnUse" color-interpolation-filters="sRGB">
<feFlood flood-opacity="0" result="BackgroundImageFix"/>
<feColorMatrix in="SourceAlpha" type="matrix" values="0 0 0 0 0 0 0 0 0 0 0 0 0 0 0 0 0 0 127 0" result="hardAlpha"/>
<feOffset dy="3.48368"/>
<feGaussianBlur stdDeviation="5.22552"/>
<feComposite in2="hardAlpha" operator="out"/>
<feColorMatrix type="matrix" values="0 0 0 0 0.0196078 0 0 0 0 0.168627 0 0 0 0 0.396078 0 0 0 0.15 0"/>
<feBlend mode="normal" in2="BackgroundImageFix" result="effect1_dropShadow_92_1421"/>
<feBlend mode="normal" in="SourceGraphic" in2="effect1_dropShadow_92_1421" result="shape"/>
</filter>
<filter id="filter3_d_92_1421" x="134.957" y="91.7088" width="165.84" height="109.103" filterUnits="userSpaceOnUse" color-interpolation-filters="sRGB">
<feFlood flood-opacity="0" result="BackgroundImageFix"/>
<feColorMatrix in="SourceAlpha" type="matrix" values="0 0 0 0 0 0 0 0 0 0 0 0 0 0 0 0 0 0 127 0" result="hardAlpha"/>
<feOffset dx="-5.28021" dy="13.0638"/>
<feGaussianBlur stdDeviation="7.40282"/>
<feComposite in2="hardAlpha" operator="out"/>
<feColorMatrix type="matrix" values="0 0 0 0 0.021441 0 0 0 0 0.168056 0 0 0 0 0.395833 0 0 0 0.15 0"/>
<feBlend mode="normal" in2="BackgroundImageFix" result="effect1_dropShadow_92_1421"/>
<feBlend mode="normal" in="SourceGraphic" in2="effect1_dropShadow_92_1421" result="shape"/>
</filter>
<linearGradient id="paint0_linear_92_1421" x1="148.317" y1="-36.8495" x2="150.667" y2="365.963" gradientUnits="userSpaceOnUse">
<stop stop-color="#CAE0FF" stop-opacity="0"/>
<stop offset="1" stop-color="#BCD8FF"/>
</linearGradient>
<linearGradient id="paint1_linear_92_1421" x1="146.99" y1="12.6929" x2="146.99" y2="146.719" gradientUnits="userSpaceOnUse">
<stop stop-color="#EDF4FF"/>
<stop offset="1" stop-color="#ABCCFF"/>
</linearGradient>
<linearGradient id="paint2_linear_92_1421" x1="89.8536" y1="78.124" x2="89.8536" y2="194.094" gradientUnits="userSpaceOnUse">
<stop stop-color="#ABCCFF"/>
<stop offset="1" stop-color="#70A8FF"/>
</linearGradient>
<linearGradient id="paint3_linear_92_1421" x1="204.135" y1="78.124" x2="204.135" y2="194.094" gradientUnits="userSpaceOnUse">
<stop stop-color="#ABCCFF"/>
<stop offset="1" stop-color="#70A8FF"/>
</linearGradient>
<linearGradient id="paint4_linear_92_1421" x1="146.99" y1="127.506" x2="146.99" y2="194.094" gradientUnits="userSpaceOnUse">
<stop stop-color="#70A8FF"/>
<stop offset="1" stop-color="#5597FD"/>
</linearGradient>
<linearGradient id="paint5_linear_92_1421" x1="23.4438" y1="86.2857" x2="97.0366" y2="71.9155" gradientUnits="userSpaceOnUse">
<stop stop-color="#C6DDFF"/>
<stop offset="1" stop-color="white"/>
</linearGradient>
<linearGradient id="paint6_linear_92_1421" x1="276.488" y1="128.828" x2="187.252" y2="111.403" gradientUnits="userSpaceOnUse">
<stop stop-color="#C6DDFF"/>
<stop offset="1" stop-color="white"/>
</linearGradient>
<linearGradient id="paint7_linear_92_1421" x1="240.103" y1="23.7862" x2="259.154" y2="40.2974" gradientUnits="userSpaceOnUse">
<stop stop-color="#94BFFF"/>
<stop offset="1" stop-color="#4C94FE"/>
</linearGradient>
<linearGradient id="paint8_linear_92_1421" x1="62.1088" y1="201.356" x2="81.1601" y2="217.867" gradientUnits="userSpaceOnUse">
<stop stop-color="#94BFFF"/>
<stop offset="1" stop-color="#4C94FE"/>
</linearGradient>
<linearGradient id="paint9_linear_92_1421" x1="209.294" y1="210.936" x2="228.346" y2="227.447" gradientUnits="userSpaceOnUse">
<stop stop-color="#94BFFF"/>
<stop offset="1" stop-color="#4C94FE"/>
</linearGradient>
<linearGradient id="paint10_linear_92_1421" x1="87.8904" y1="24.0146" x2="87.8904" y2="65.8188" gradientUnits="userSpaceOnUse">
<stop stop-color="#70A8FF"/>
<stop offset="1" stop-color="#5597FD"/>
</linearGradient>
<linearGradient id="paint11_linear_92_1421" x1="262.402" y1="175.5" x2="262.402" y2="217.304" gradientUnits="userSpaceOnUse">
<stop stop-color="#70A8FF"/>
<stop offset="1" stop-color="#5597FD"/>
</linearGradient>
<linearGradient id="paint12_linear_92_1421" x1="40.7112" y1="166.637" x2="27.1934" y2="177.622" gradientUnits="userSpaceOnUse">
<stop stop-color="#70A8FF"/>
<stop offset="1" stop-color="#5597FD"/>
</linearGradient>
<linearGradient id="paint13_linear_92_1421" x1="263.082" y1="77.9985" x2="275.248" y2="90.4639" gradientUnits="userSpaceOnUse">
<stop stop-color="#70A8FF"/>
<stop offset="1" stop-color="#5597FD"/>
</linearGradient>
</defs>
</svg>
