<svg width="254" height="247" viewBox="0 0 254 247" fill="none" xmlns="http://www.w3.org/2000/svg">
<g id="Not Found illustration">
<path id="Vector" d="M128.321 246.423C191.669 246.423 243.022 195.07 243.022 131.722C243.022 68.3744 191.669 17.021 128.321 17.021C64.9735 17.021 13.6201 68.3744 13.6201 131.722C13.6201 195.07 64.9735 246.423 128.321 246.423Z" fill="url(#paint0_linear_73_2194)"/>
<path id="Vector_2" d="M190.201 43.7109H63.1365C55.2164 43.7109 48.7959 50.1314 48.7959 58.0516H204.542C204.542 50.1314 198.121 43.7109 190.201 43.7109Z" fill="url(#paint1_linear_73_2194)"/>
<path id="Vector_3" d="M48.7959 57.6602H204.542V176.279C204.542 181.553 202.447 186.61 198.717 190.34C194.988 194.069 189.93 196.164 184.657 196.164H68.681C63.4071 196.164 58.3493 194.069 54.6201 190.34C50.8909 186.61 48.7959 181.553 48.7959 176.279V57.6602Z" fill="url(#paint2_linear_73_2194)"/>
<path id="Vector_4" d="M177.77 72.6426H75.6186C73.4912 72.6426 71.7666 74.3653 71.7666 76.4904C71.7666 78.6154 73.4912 80.3382 75.6186 80.3382H177.77C179.898 80.3382 181.622 78.6154 181.622 76.4904C181.622 74.3653 179.898 72.6426 177.77 72.6426Z" fill="url(#paint3_linear_73_2194)"/>
<path id="Vector_5" d="M177.77 105.338H75.6186C73.4912 105.338 71.7666 107.061 71.7666 109.186C71.7666 111.311 73.4912 113.033 75.6186 113.033H177.77C179.898 113.033 181.622 111.311 181.622 109.186C181.622 107.061 179.898 105.338 177.77 105.338Z" fill="url(#paint4_linear_73_2194)"/>
<path id="Vector_6" d="M177.77 138.034H75.6186C73.4912 138.034 71.7666 139.756 71.7666 141.881C71.7666 144.007 73.4912 145.729 75.6186 145.729H177.77C179.898 145.729 181.622 144.007 181.622 141.881C181.622 139.756 179.898 138.034 177.77 138.034Z" fill="url(#paint5_linear_73_2194)"/>
<path id="Vector_7" d="M177.77 170.729H75.6186C73.4912 170.729 71.7666 172.452 71.7666 174.577C71.7666 176.702 73.4912 178.425 75.6186 178.425H177.77C179.898 178.425 181.622 176.702 181.622 174.577C181.622 172.452 179.898 170.729 177.77 170.729Z" fill="url(#paint6_linear_73_2194)"/>
<g id="Vector_8" filter="url(#filter0_d_73_2194)">
<path d="M74.9268 131.021H20.5325C16.1626 131.021 12.6201 134.563 12.6201 138.933V216.681C12.6201 221.051 16.1626 224.594 20.5325 224.594H74.9268C79.2966 224.594 82.8391 221.051 82.8391 216.681V138.933C82.8391 134.563 79.2966 131.021 74.9268 131.021Z" fill="url(#paint7_linear_73_2194)"/>
</g>
<g id="Vector_9" filter="url(#filter1_d_73_2194)">
<path d="M229.77 9.57715H169.689C166.89 9.57715 164.62 11.8467 164.62 14.6464V42.8857C164.62 45.6854 166.89 47.955 169.689 47.955H229.77C232.57 47.955 234.839 45.6854 234.839 42.8857V14.6464C234.839 11.8467 232.57 9.57715 229.77 9.57715Z" fill="url(#paint8_linear_73_2194)"/>
</g>
<path id="Vector_10" d="M68.8565 169.916H26.6017C25.1788 169.916 24.0254 171.069 24.0254 172.492V172.5C24.0254 173.923 25.1788 175.076 26.6017 175.076H68.8565C70.2794 175.076 71.4328 173.923 71.4328 172.5V172.492C71.4328 171.069 70.2794 169.916 68.8565 169.916Z" fill="url(#paint9_linear_73_2194)"/>
<path id="Vector_11" d="M68.8814 206.23H26.9897C25.5791 206.23 24.4355 207.348 24.4355 208.726V208.735C24.4355 210.113 25.5791 211.23 26.9897 211.23H68.8814C70.292 211.23 71.4355 210.113 71.4355 208.735V208.726C71.4355 207.348 70.292 206.23 68.8814 206.23Z" fill="url(#paint10_linear_73_2194)"/>
<path id="Vector_12" d="M68.8814 187.23H26.9897C25.5791 187.23 24.4355 188.348 24.4355 189.726V189.735C24.4355 191.113 25.5791 192.23 26.9897 192.23H68.8814C70.292 192.23 71.4355 191.113 71.4355 189.735V189.726C71.4355 188.348 70.292 187.23 68.8814 187.23Z" fill="url(#paint11_linear_73_2194)"/>
<path id="Vector_13" d="M42.0514 143.027H29.7035C26.9683 143.027 24.751 145.244 24.751 147.979V151.406C24.751 154.141 26.9683 156.359 29.7035 156.359H42.0514C44.7866 156.359 47.004 154.141 47.004 151.406V147.979C47.004 145.244 44.7866 143.027 42.0514 143.027Z" fill="url(#paint12_linear_73_2194)"/>
<g id="Group 24">
<g id="Group 23">
<path id="Vector_14" d="M179.448 34.59C182.667 34.59 185.276 31.9807 185.276 28.762C185.276 25.5433 182.667 22.9341 179.448 22.9341C176.229 22.9341 173.62 25.5433 173.62 28.762C173.62 31.9807 176.229 34.59 179.448 34.59Z" fill="#81D5E7"/>
<path id="Vector_15" d="M200.275 34.59C203.494 34.59 206.103 31.9807 206.103 28.762C206.103 25.5433 203.494 22.9341 200.275 22.9341C197.057 22.9341 194.447 25.5433 194.447 28.762C194.447 31.9807 197.057 34.59 200.275 34.59Z" fill="#81D5E7"/>
<path id="Vector_16" d="M221.102 34.59C224.321 34.59 226.93 31.9807 226.93 28.762C226.93 25.5433 224.321 22.9341 221.102 22.9341C217.884 22.9341 215.274 25.5433 215.274 28.762C215.274 31.9807 217.884 34.59 221.102 34.59Z" fill="#81D5E7"/>
</g>
</g>
<path id="Subtract" fill-rule="evenodd" clip-rule="evenodd" d="M246.279 163.64C246.279 194.092 221.592 218.779 191.14 218.779C160.687 218.779 136 194.092 136 163.64C136 133.187 160.687 108.5 191.14 108.5C221.592 108.5 246.279 133.187 246.279 163.64ZM237.821 163.64C237.821 189.421 216.921 210.322 191.139 210.322C165.358 210.322 144.458 189.421 144.458 163.64C144.458 137.858 165.358 116.958 191.139 116.958C216.921 116.958 237.821 137.858 237.821 163.64Z" fill="url(#paint13_linear_73_2194)"/>
<g id="Vector_17" filter="url(#filter2_b_73_2194)">
<path d="M191 210.5C216.957 210.5 238 189.457 238 163.5C238 137.543 216.957 116.5 191 116.5C165.043 116.5 144 137.543 144 163.5C144 189.457 165.043 210.5 191 210.5Z" fill="url(#paint14_linear_73_2194)" fill-opacity="0.2"/>
</g>
<path id="Vector_18" d="M202.622 164L216.074 150.599C217.335 149.274 218.025 147.512 217.999 145.688C217.973 143.864 217.233 142.123 215.935 140.833C214.638 139.543 212.885 138.807 211.05 138.781C209.215 138.756 207.443 139.442 206.109 140.695L192.626 154.095L179.173 140.695C178.526 140.014 177.748 139.469 176.885 139.092C176.022 138.715 175.092 138.514 174.149 138.501C173.207 138.487 172.271 138.662 171.398 139.015C170.525 139.367 169.731 139.89 169.065 140.552C168.398 141.215 167.872 142.003 167.518 142.871C167.163 143.739 166.987 144.669 167.001 145.606C167.014 146.543 167.216 147.467 167.595 148.325C167.975 149.183 168.523 149.956 169.208 150.599L182.683 164L169.208 177.401C168.523 178.044 167.975 178.817 167.595 179.675C167.216 180.533 167.014 181.457 167.001 182.394C166.987 183.331 167.163 184.261 167.518 185.129C167.872 185.997 168.398 186.785 169.065 187.448C169.731 188.11 170.525 188.633 171.398 188.985C172.271 189.338 173.207 189.513 174.149 189.499C175.092 189.486 176.022 189.285 176.885 188.908C177.748 188.531 178.526 187.986 179.173 187.305L192.656 173.905L206.139 187.305C207.485 188.484 209.234 189.108 211.027 189.051C212.82 188.993 214.524 188.257 215.791 186.995C217.058 185.732 217.792 184.036 217.845 182.253C217.898 180.471 217.264 178.735 216.074 177.401L202.622 164Z" fill="url(#paint15_linear_73_2194)"/>
<g id="Ellipse 61" filter="url(#filter3_f_73_2194)">
<ellipse cx="160.985" cy="175.483" rx="36.6853" ry="5.41942" fill="#EC5575" fill-opacity="0.56"/>
</g>
<path id="Star 1" d="M118.588 211.482C119.106 209.338 122.155 209.338 122.673 211.482L124.415 218.698C124.6 219.464 125.198 220.062 125.964 220.247L133.18 221.989C135.324 222.507 135.324 225.556 133.18 226.074L125.964 227.816C125.198 228.001 124.6 228.599 124.415 229.365L122.673 236.581C122.155 238.725 119.106 238.725 118.588 236.581L116.846 229.365C116.661 228.599 116.063 228.001 115.297 227.816L108.081 226.074C105.937 225.556 105.937 222.507 108.081 221.989L115.297 220.247C116.063 220.062 116.661 219.464 116.846 218.698L118.588 211.482Z" fill="url(#paint16_linear_73_2194)"/>
<path id="Star 2" d="M35.5881 19.4817C36.1057 17.3377 39.1553 17.3377 39.6729 19.4817L41.4148 26.6977C41.5997 27.4639 42.198 28.0621 42.9641 28.2471L50.1801 29.989C52.3242 30.5066 52.3242 33.5562 50.1801 34.0737L42.9641 35.8157C42.198 36.0006 41.5997 36.5988 41.4148 37.365L39.6729 44.581C39.1553 46.7251 36.1057 46.7251 35.5881 44.581L33.8462 37.365C33.6613 36.5988 33.063 36.0006 32.2969 35.8157L25.0808 34.0738C22.9368 33.5562 22.9368 30.5066 25.0808 29.989L32.2969 28.2471C33.063 28.0621 33.6613 27.4639 33.8462 26.6977L35.5881 19.4817Z" fill="url(#paint17_linear_73_2194)"/>
<path id="Ellipse 59 (Stroke)" fill-rule="evenodd" clip-rule="evenodd" d="M123.748 20.6508C125.682 20.6508 127.25 19.083 127.25 17.149C127.25 15.2151 125.682 13.6473 123.748 13.6473C121.814 13.6473 120.246 15.2151 120.246 17.149C120.246 19.083 121.814 20.6508 123.748 20.6508ZM123.748 23.2771C127.133 23.2771 129.876 20.5334 129.876 17.149C129.876 13.7646 127.133 11.021 123.748 11.021C120.364 11.021 117.62 13.7646 117.62 17.149C117.62 20.5334 120.364 23.2771 123.748 23.2771Z" fill="url(#paint18_linear_73_2194)"/>
<path id="Polygon 2" d="M232.634 117.074C232.301 115.768 233.507 114.591 234.805 114.956L243.563 117.417C244.861 117.782 245.277 119.414 244.312 120.356L237.802 126.71C236.837 127.652 235.215 127.196 234.882 125.89L232.634 117.074Z" fill="url(#paint19_linear_73_2194)"/>
<path id="Polygon 3" d="M27.3329 102.039C28.6394 101.708 29.8146 102.915 29.4483 104.212L26.9757 112.968C26.6094 114.265 24.9763 114.679 24.0361 113.713L17.6901 107.194C16.75 106.228 17.2079 104.607 18.5143 104.276L27.3329 102.039Z" fill="url(#paint20_linear_73_2194)"/>
<path id="Polygon 4" d="M194.333 223.039C195.639 222.708 196.815 223.915 196.448 225.212L193.976 233.968C193.609 235.265 191.976 235.679 191.036 234.713L184.69 228.194C183.75 227.228 184.208 225.607 185.514 225.276L194.333 223.039Z" fill="url(#paint21_linear_73_2194)"/>
<path id="Ellipse 60 (Stroke)" fill-rule="evenodd" clip-rule="evenodd" d="M240.748 71.6508C242.682 71.6508 244.25 70.083 244.25 68.149C244.25 66.2151 242.682 64.6473 240.748 64.6473C238.814 64.6473 237.246 66.2151 237.246 68.149C237.246 70.083 238.814 71.6508 240.748 71.6508ZM240.748 74.2771C244.133 74.2771 246.876 71.5334 246.876 68.149C246.876 64.7646 244.133 62.021 240.748 62.021C237.364 62.021 234.62 64.7646 234.62 68.149C234.62 71.5334 237.364 74.2771 240.748 74.2771Z" fill="url(#paint22_linear_73_2194)"/>
</g>
<defs>
<filter id="filter0_d_73_2194" x="0.620117" y="123.021" width="100.219" height="123.573" filterUnits="userSpaceOnUse" color-interpolation-filters="sRGB">
<feFlood flood-opacity="0" result="BackgroundImageFix"/>
<feColorMatrix in="SourceAlpha" type="matrix" values="0 0 0 0 0 0 0 0 0 0 0 0 0 0 0 0 0 0 127 0" result="hardAlpha"/>
<feOffset dx="3" dy="7"/>
<feGaussianBlur stdDeviation="7.5"/>
<feComposite in2="hardAlpha" operator="out"/>
<feColorMatrix type="matrix" values="0 0 0 0 0.104618 0 0 0 0 0.465612 0 0 0 0 0.545833 0 0 0 0.15 0"/>
<feBlend mode="normal" in2="BackgroundImageFix" result="effect1_dropShadow_73_2194"/>
<feBlend mode="normal" in="SourceGraphic" in2="effect1_dropShadow_73_2194" result="shape"/>
</filter>
<filter id="filter1_d_73_2194" x="157.62" y="0.577148" width="96.2188" height="64.3779" filterUnits="userSpaceOnUse" color-interpolation-filters="sRGB">
<feFlood flood-opacity="0" result="BackgroundImageFix"/>
<feColorMatrix in="SourceAlpha" type="matrix" values="0 0 0 0 0 0 0 0 0 0 0 0 0 0 0 0 0 0 127 0" result="hardAlpha"/>
<feOffset dx="6" dy="4"/>
<feGaussianBlur stdDeviation="6.5"/>
<feComposite in2="hardAlpha" operator="out"/>
<feColorMatrix type="matrix" values="0 0 0 0 0.104618 0 0 0 0 0.465612 0 0 0 0 0.545833 0 0 0 0.09 0"/>
<feBlend mode="normal" in2="BackgroundImageFix" result="effect1_dropShadow_73_2194"/>
<feBlend mode="normal" in="SourceGraphic" in2="effect1_dropShadow_73_2194" result="shape"/>
</filter>
<filter id="filter2_b_73_2194" x="127.325" y="99.8249" width="127.35" height="127.35" filterUnits="userSpaceOnUse" color-interpolation-filters="sRGB">
<feFlood flood-opacity="0" result="BackgroundImageFix"/>
<feGaussianBlur in="BackgroundImageFix" stdDeviation="8.33757"/>
<feComposite in2="SourceAlpha" operator="in" result="effect1_backgroundBlur_73_2194"/>
<feBlend mode="normal" in="SourceGraphic" in2="effect1_backgroundBlur_73_2194" result="shape"/>
</filter>
<filter id="filter3_f_73_2194" x="103.456" y="149.22" width="115.059" height="52.5267" filterUnits="userSpaceOnUse" color-interpolation-filters="sRGB">
<feFlood flood-opacity="0" result="BackgroundImageFix"/>
<feBlend mode="normal" in="SourceGraphic" in2="BackgroundImageFix" result="shape"/>
<feGaussianBlur stdDeviation="10.422" result="effect1_foregroundBlur_73_2194"/>
</filter>
<linearGradient id="paint0_linear_73_2194" x1="127.437" y1="-20.3285" x2="129.787" y2="382.484" gradientUnits="userSpaceOnUse">
<stop stop-color="white" stop-opacity="0"/>
<stop offset="1" stop-color="#8EE2F4"/>
</linearGradient>
<linearGradient id="paint1_linear_73_2194" x1="48.6195" y1="47.0205" x2="204.62" y2="58.0205" gradientUnits="userSpaceOnUse">
<stop stop-color="#90E3F5"/>
<stop offset="1" stop-color="#65C8DE"/>
</linearGradient>
<linearGradient id="paint2_linear_73_2194" x1="44.1195" y1="161.521" x2="269.12" y2="165.521" gradientUnits="userSpaceOnUse">
<stop stop-color="white"/>
<stop offset="1" stop-color="#BCF3FF"/>
</linearGradient>
<linearGradient id="paint3_linear_73_2194" x1="67.1203" y1="80.0208" x2="188.12" y2="80.0208" gradientUnits="userSpaceOnUse">
<stop stop-color="#65C8DE"/>
<stop offset="1" stop-color="#D2F7FF"/>
</linearGradient>
<linearGradient id="paint4_linear_73_2194" x1="67.1203" y1="112.716" x2="188.12" y2="112.716" gradientUnits="userSpaceOnUse">
<stop stop-color="#65C8DE"/>
<stop offset="1" stop-color="#D2F7FF"/>
</linearGradient>
<linearGradient id="paint5_linear_73_2194" x1="67.1203" y1="145.412" x2="188.12" y2="145.412" gradientUnits="userSpaceOnUse">
<stop stop-color="#65C8DE"/>
<stop offset="1" stop-color="#D2F7FF"/>
</linearGradient>
<linearGradient id="paint6_linear_73_2194" x1="67.1203" y1="178.107" x2="188.12" y2="178.107" gradientUnits="userSpaceOnUse">
<stop stop-color="#65C8DE"/>
<stop offset="1" stop-color="#D2F7FF"/>
</linearGradient>
<linearGradient id="paint7_linear_73_2194" x1="10.5117" y1="201.189" x2="145.098" y2="212.243" gradientUnits="userSpaceOnUse">
<stop stop-color="white"/>
<stop offset="1" stop-color="#BCF3FF"/>
</linearGradient>
<linearGradient id="paint8_linear_73_2194" x1="162.512" y1="38.3558" x2="263.902" y2="41.2887" gradientUnits="userSpaceOnUse">
<stop stop-color="white"/>
<stop offset="1" stop-color="#BCF3FF"/>
</linearGradient>
<linearGradient id="paint9_linear_73_2194" x1="76.9346" y1="175.23" x2="19.9346" y2="175.23" gradientUnits="userSpaceOnUse">
<stop stop-color="#D2F7FF"/>
<stop offset="1" stop-color="#65C8DE"/>
</linearGradient>
<linearGradient id="paint10_linear_73_2194" x1="76.89" y1="211.38" x2="20.3799" y2="211.38" gradientUnits="userSpaceOnUse">
<stop stop-color="#D2F7FF"/>
<stop offset="1" stop-color="#65C8DE"/>
</linearGradient>
<linearGradient id="paint11_linear_73_2194" x1="76.89" y1="192.38" x2="20.3799" y2="192.38" gradientUnits="userSpaceOnUse">
<stop stop-color="#D2F7FF"/>
<stop offset="1" stop-color="#65C8DE"/>
</linearGradient>
<linearGradient id="paint12_linear_73_2194" x1="62.4347" y1="156.23" x2="21.9347" y2="156.23" gradientUnits="userSpaceOnUse">
<stop offset="0.243799" stop-color="#D2F7FF"/>
<stop offset="1" stop-color="#6BCBE0"/>
</linearGradient>
<linearGradient id="paint13_linear_73_2194" x1="135.875" y1="133.951" x2="246.879" y2="134.672" gradientUnits="userSpaceOnUse">
<stop stop-color="#90E3F5"/>
<stop offset="1" stop-color="#65C8DE"/>
</linearGradient>
<linearGradient id="paint14_linear_73_2194" x1="191" y1="116.5" x2="238.36" y2="239.395" gradientUnits="userSpaceOnUse">
<stop stop-color="white"/>
<stop offset="1" stop-color="#D2F7FF"/>
</linearGradient>
<linearGradient id="paint15_linear_73_2194" x1="167.244" y1="141.931" x2="218.031" y2="189.671" gradientUnits="userSpaceOnUse">
<stop stop-color="#FF698D"/>
<stop offset="1" stop-color="#FF3868"/>
</linearGradient>
<linearGradient id="paint16_linear_73_2194" x1="99.5725" y1="212.719" x2="141.869" y2="212.993" gradientUnits="userSpaceOnUse">
<stop stop-color="#90E3F5"/>
<stop offset="1" stop-color="#65C8DE"/>
</linearGradient>
<linearGradient id="paint17_linear_73_2194" x1="16.5725" y1="20.7188" x2="58.8694" y2="20.9934" gradientUnits="userSpaceOnUse">
<stop stop-color="#90E3F5"/>
<stop offset="1" stop-color="#65C8DE"/>
</linearGradient>
<linearGradient id="paint18_linear_73_2194" x1="117.606" y1="13.8495" x2="129.943" y2="13.9296" gradientUnits="userSpaceOnUse">
<stop stop-color="#90E3F5"/>
<stop offset="1" stop-color="#65C8DE"/>
</linearGradient>
<linearGradient id="paint19_linear_73_2194" x1="228.428" y1="123.156" x2="241.12" y2="110.928" gradientUnits="userSpaceOnUse">
<stop stop-color="#90E3F5"/>
<stop offset="1" stop-color="#65C8DE"/>
</linearGradient>
<linearGradient id="paint20_linear_73_2194" x1="21.2568" y1="97.8254" x2="33.468" y2="110.533" gradientUnits="userSpaceOnUse">
<stop stop-color="#90E3F5"/>
<stop offset="1" stop-color="#65C8DE"/>
</linearGradient>
<linearGradient id="paint21_linear_73_2194" x1="188.257" y1="218.825" x2="200.468" y2="231.533" gradientUnits="userSpaceOnUse">
<stop stop-color="#90E3F5"/>
<stop offset="1" stop-color="#65C8DE"/>
</linearGradient>
<linearGradient id="paint22_linear_73_2194" x1="234.606" y1="64.8495" x2="246.943" y2="64.9296" gradientUnits="userSpaceOnUse">
<stop stop-color="#90E3F5"/>
<stop offset="1" stop-color="#65C8DE"/>
</linearGradient>
</defs>
</svg>
