<svg width="243" height="247" viewBox="0 0 243 247" fill="none" xmlns="http://www.w3.org/2000/svg">
<g id="No Favorite illustration">
<g id="Ellipse 60" filter="url(#filter0_f_92_2155)">
<ellipse cx="118.093" cy="205.317" rx="88.2261" ry="19.1045" fill="#FFEBE7"/>
</g>
<path id="Vector" d="M119.237 220.337C179.658 220.337 228.639 174.705 228.639 118.416C228.639 62.1262 179.658 16.4946 119.237 16.4946C58.8166 16.4946 9.83594 62.1262 9.83594 118.416C9.83594 174.705 58.8166 220.337 119.237 220.337Z" fill="url(#paint0_linear_92_2155)"/>
<path id="Vector_2" d="M173.485 29.8232H63.3243C59.2253 29.8232 55.2942 31.3402 52.3958 34.0404C49.4974 36.7407 47.8691 40.4029 47.8691 44.2216V161.169H48.058V202.236C48.0579 203.822 48.4939 205.381 49.3246 206.765C50.1552 208.149 51.3527 209.312 52.8028 210.142C54.2529 210.972 55.9072 211.442 57.6078 211.508C59.3084 211.573 60.9987 211.231 62.5172 210.515L113.33 186.518C114.715 185.871 116.242 185.534 117.791 185.534C119.339 185.534 120.867 185.871 122.251 186.518L174.627 210.691C176.147 211.392 177.833 211.721 179.527 211.645C181.221 211.569 182.866 211.092 184.306 210.258C185.747 209.424 186.935 208.261 187.758 206.879C188.58 205.498 189.011 203.944 189.009 202.364L188.871 161.169V44.1816C188.86 40.3809 187.236 36.7386 184.354 34.0488C181.472 31.3591 177.565 29.8401 173.485 29.8232Z" fill="url(#paint1_linear_92_2155)"/>
<path id="Vector_3" d="M242.563 67.6985C242.567 70.811 241.355 73.8185 239.154 76.1602C236.953 78.5019 233.913 80.018 230.601 80.4257C229.996 80.4976 229.386 80.5345 228.776 80.5363H182.939C181.944 80.5342 180.952 80.458 179.97 80.3082C175.757 79.6308 171.962 77.5256 169.314 74.3975C166.667 71.2695 165.356 67.3398 165.632 63.3648C165.908 59.3899 167.753 55.6507 170.811 52.8669C173.869 50.0831 177.925 48.4515 182.197 48.2862C184.411 43.8073 188.128 40.1207 192.788 37.7823C197.448 35.444 202.798 34.5808 208.03 35.3229C213.263 36.065 218.095 38.3722 221.796 41.8965C225.498 45.4207 227.87 49.9709 228.553 54.8606H228.761C230.572 54.8579 232.367 55.188 234.041 55.8319C235.715 56.4758 237.237 57.421 238.519 58.6134C239.801 59.8058 240.818 61.2219 241.512 62.7808C242.206 64.3398 242.563 66.0108 242.563 67.6985Z" fill="url(#paint2_linear_92_2155)"/>
<path id="Vector_4" d="M9.47852 42.5548C9.47852 45.1217 10.573 47.5835 12.5213 49.3985C14.4696 51.2136 17.1121 52.2333 19.8673 52.2333H54.3583C57.7566 52.2165 61.0136 50.9643 63.4355 48.7433C65.8574 46.5223 67.2528 43.5082 67.3244 40.3428C67.396 37.1775 66.1381 34.1112 63.8188 31.7972C61.4995 29.4831 58.3019 28.1042 54.9074 27.9541C53.2332 24.5946 50.4345 21.8316 46.9313 20.08C43.4282 18.3283 39.4097 17.6826 35.4791 18.2396C31.5485 18.7967 27.918 20.5265 25.1324 23.1694C22.3469 25.8123 20.5567 29.2257 20.0306 32.8971H19.8748C17.122 32.8952 14.4811 33.9113 12.5318 35.722C10.5826 37.5328 9.48441 39.9903 9.47852 42.5548Z" fill="url(#paint3_linear_92_2155)"/>
<g id="Ellipse 61" filter="url(#filter1_f_92_2155)">
<ellipse cx="122.969" cy="138.389" rx="49.7311" ry="9.92801" fill="#FF7C86" fill-opacity="0.39"/>
</g>
<path id="Vector_5" d="M0.298846 166.299C0.297201 169.399 1.5052 172.393 3.69775 174.725C5.89031 177.056 8.91787 178.565 12.2163 178.971C12.8163 179.049 13.4212 179.088 14.0269 179.089H59.6636C60.658 179.087 61.6506 179.011 62.6318 178.86C66.8511 178.206 70.659 176.115 73.3168 172.993C75.9746 169.87 77.2926 165.94 77.0153 161.963C76.738 157.987 74.885 154.248 71.8158 151.472C68.7467 148.697 64.6803 147.082 60.4057 146.942C58.1981 142.485 54.4956 138.817 49.8559 136.491C45.2161 134.165 39.8906 133.306 34.6816 134.045C29.4727 134.784 24.6625 137.08 20.976 140.587C17.2894 144.094 14.9261 148.622 14.2421 153.489H14.0269C12.2223 153.489 10.4353 153.821 8.76828 154.465C7.10126 155.109 5.5869 156.052 4.31183 157.242C3.03677 158.432 2.02603 159.844 1.33744 161.399C0.648848 162.953 0.29592 164.618 0.298846 166.299Z" fill="url(#paint4_linear_92_2155)"/>
<path id="Polygon 2" d="M205.92 95.8247C205.595 94.6349 206.772 93.5646 208.041 93.8968L215.491 95.8474C216.762 96.18 217.171 97.6689 216.228 98.5264L210.689 103.562C209.746 104.42 208.158 104.003 207.832 102.811L205.92 95.8247Z" fill="#FFBEBD"/>
<path id="Polygon 3" d="M23.5726 95.8247C23.247 94.6349 24.4241 93.5646 25.6929 93.8968L33.1436 95.8474C34.414 96.18 34.8234 97.6689 33.8802 98.5264L28.3416 103.562C27.3984 104.42 25.8107 104.003 25.4847 102.811L23.5726 95.8247Z" fill="#FFBEBD"/>
<path id="Star 2" d="M84.7333 7.92072C85.2474 5.93662 88.0648 5.93663 88.5789 7.92073L90.036 13.5441C90.2227 14.2647 90.7967 14.8204 91.523 14.9837L96.9842 16.2119C99.0515 16.6768 99.0515 19.6228 96.9842 20.0877L91.523 21.3159C90.7967 21.4792 90.2227 22.0349 90.036 22.7555L88.5789 28.3789C88.0648 30.363 85.2474 30.363 84.7333 28.3789L83.2763 22.7555C83.0895 22.0349 82.5156 21.4792 81.7893 21.3159L76.328 20.0877C74.2607 19.6228 74.2607 16.6768 76.328 16.2119L81.7893 14.9837C82.5156 14.8204 83.0895 14.2647 83.2763 13.5441L84.7333 7.92072Z" fill="#FFBEBD"/>
<path id="Ellipse 54" d="M127.253 202.002C127.253 204.078 125.419 205.908 122.969 205.908C120.519 205.908 118.685 204.078 118.685 202.002C118.685 199.926 120.519 198.095 122.969 198.095C125.419 198.095 127.253 199.926 127.253 202.002Z" stroke="#FFBEBD" stroke-width="2.48287"/>
<path id="Star 1" d="M204.72 168.975C205.234 166.991 208.051 166.991 208.565 168.975L210.022 174.599C210.209 175.319 210.783 175.875 211.509 176.038L216.971 177.267C219.038 177.732 219.038 180.677 216.971 181.142L211.509 182.371C210.783 182.534 210.209 183.09 210.022 183.81L208.565 189.434C208.051 191.418 205.234 191.418 204.72 189.434L203.263 183.81C203.076 183.09 202.502 182.534 201.776 182.371L196.314 181.142C194.247 180.677 194.247 177.732 196.314 177.267L201.776 176.038C202.502 175.875 203.076 175.319 203.263 174.599L204.72 168.975Z" fill="#FFBEBD"/>
<path id="Ellipse 59" d="M216.453 143.169C216.453 145.245 214.619 147.076 212.168 147.076C209.718 147.076 207.884 145.245 207.884 143.169C207.884 141.093 209.718 139.263 212.168 139.263C214.619 139.263 216.453 141.093 216.453 143.169Z" stroke="#FC9999" stroke-width="2.48287"/>
</g>
<defs>
<filter id="filter0_f_92_2155" x="8.09419" y="164.44" width="219.999" height="81.755" filterUnits="userSpaceOnUse" color-interpolation-filters="sRGB">
<feFlood flood-opacity="0" result="BackgroundImageFix"/>
<feBlend mode="normal" in="SourceGraphic" in2="BackgroundImageFix" result="shape"/>
<feGaussianBlur stdDeviation="10.8865" result="effect1_foregroundBlur_92_2155"/>
</filter>
<filter id="filter1_f_92_2155" x="52.5477" y="107.77" width="140.844" height="61.2371" filterUnits="userSpaceOnUse" color-interpolation-filters="sRGB">
<feFlood flood-opacity="0" result="BackgroundImageFix"/>
<feBlend mode="normal" in="SourceGraphic" in2="BackgroundImageFix" result="shape"/>
<feGaussianBlur stdDeviation="10.3453" result="effect1_foregroundBlur_92_2155"/>
</filter>
<linearGradient id="paint0_linear_92_2155" x1="118.394" y1="-16.6933" x2="120.339" y2="341.239" gradientUnits="userSpaceOnUse">
<stop stop-color="#FFE1E1" stop-opacity="0"/>
<stop offset="1" stop-color="#FFE1E0"/>
</linearGradient>
<linearGradient id="paint1_linear_92_2155" x1="223.347" y1="221.02" x2="64.907" y2="68.2115" gradientUnits="userSpaceOnUse">
<stop stop-color="#FF9999"/>
<stop offset="1" stop-color="#FFE7DA"/>
</linearGradient>
<linearGradient id="paint2_linear_92_2155" x1="227.957" y1="100.148" x2="193.683" y2="33.0161" gradientUnits="userSpaceOnUse">
<stop stop-color="#FFBEBD"/>
<stop offset="1" stop-color="#FFF6F5"/>
</linearGradient>
<linearGradient id="paint3_linear_92_2155" x1="56.3493" y1="66.9781" x2="30.5753" y2="16.5122" gradientUnits="userSpaceOnUse">
<stop stop-color="#FFBEBD"/>
<stop offset="1" stop-color="#FFF6F5"/>
</linearGradient>
<linearGradient id="paint4_linear_92_2155" x1="62.4862" y1="198.626" x2="28.3603" y2="131.72" gradientUnits="userSpaceOnUse">
<stop stop-color="#FFBEBD"/>
<stop offset="1" stop-color="#FFF6F5"/>
</linearGradient>
</defs>
</svg>
