<svg width="172" height="33" viewBox="0 0 172 33" fill="none" xmlns="http://www.w3.org/2000/svg">
<path fill-rule="evenodd" clip-rule="evenodd" d="M10.5264 1.30352L11.8299 0H26.9388L28.2423 1.30352V8.8639H25.6353V2.60703H13.1334V8.8639H10.5264V1.30352Z" fill="black"/>
<path fill-rule="evenodd" clip-rule="evenodd" d="M18.8536 11.0555L19.8205 11.0547L38.7689 18.6032L37.804 21.0251L19.3393 13.6693L0.969013 21.0243L0 18.6041L18.8536 11.0555Z" fill="#0089FF"/>
<path fill-rule="evenodd" clip-rule="evenodd" d="M10.9032 32.6226L3.34277 25.0622L5.18622 23.2188L12.3648 30.3973H26.4057L33.5843 23.2188L35.4278 25.0622L27.8674 32.6226L26.9457 33.0044H11.8249L10.9032 32.6226Z" fill="black"/>
<path d="M137.223 16.502C137.223 21.3521 134.218 24.1309 130.291 24.1309C126.333 24.1309 123.339 21.3315 123.339 16.502C123.339 11.6519 126.333 8.87305 130.291 8.87305C134.218 8.87305 137.223 11.6519 137.223 16.502ZM126.477 16.502C126.477 19.6704 127.984 21.3931 130.291 21.4033C132.578 21.3931 134.095 19.6704 134.085 16.502C134.095 13.3232 132.578 11.6108 130.291 11.6006C127.984 11.6108 126.477 13.3232 126.477 16.502Z" fill="black"/>
<path d="M110.357 23.9238V9.07617H116.182C119.555 9.07617 121.493 10.9731 121.493 13.916C121.493 15.9463 120.56 17.4229 118.868 18.1509L122.026 23.9238H118.622L115.782 18.6533H113.434V23.9238H110.357ZM113.434 16.1514H115.607C117.433 16.1514 118.325 15.4028 118.314 13.916C118.325 12.4189 117.433 11.6089 115.607 11.5986H113.434V16.1514Z" fill="black"/>
<path d="M104.841 13.8564C104.42 12.4619 103.303 11.6108 101.683 11.6006C99.3857 11.6108 97.8271 13.3643 97.8271 16.4814C97.8271 19.6191 99.3345 21.3931 101.703 21.4033C103.826 21.3931 105.087 20.1934 105.128 18.3271H101.908V16.0098H108.102V17.8555C108.102 21.752 105.425 24.1309 101.683 24.1309C97.5195 24.1309 94.6895 21.2188 94.6895 16.5225C94.6895 11.7031 97.7041 8.87305 101.621 8.87305C104.974 8.87305 107.548 10.9341 107.958 13.8564H104.841Z" fill="black"/>
<path d="M82.6104 23.9238V9.07617H92.5771V11.6191H85.6865V15.2285H92.0645V17.7715H85.6865V21.3809H92.5977V23.9238H82.6104Z" fill="black"/>
<path d="M71.1465 23.9238V9.07617H74.2227V21.3809H80.6211V23.9238H71.1465Z" fill="black"/>
<path d="M59.6826 23.9238V9.07617H62.7588V21.3809H69.1572V23.9238H59.6826Z" fill="black"/>
<path d="M47.0908 23.9238H43.7686L48.916 9.07617H52.874L58.001 23.9238H54.6992L53.5815 20.499H48.2085L47.0908 23.9238ZM48.9878 18.0996H52.8022L50.9463 12.4189H50.8438L48.9878 18.0996Z" fill="black"/>
<path d="M155.218 9.75195C155.218 9.33767 154.876 9.00195 154.453 9.00195H147.664C147.361 9.00195 147.07 9.121 146.854 9.33052L145.424 10.7329C145.208 10.9448 144.917 11.0615 144.613 11.0615H142.987C142.565 11.0615 142.223 11.3972 142.223 11.8115V23.6234C142.223 23.8305 142.395 23.9996 142.606 23.9996H144.9C145.111 23.9996 145.281 23.8305 145.281 23.6234V12.752C145.281 12.3377 145.623 12.002 146.045 12.002H151.781C151.992 12.002 152.164 12.171 152.164 12.3758V23.6258C152.164 23.8329 152.337 24.002 152.548 24.002H154.842C155.053 24.002 155.223 23.8329 155.223 23.6258V9.75195H155.218Z" fill="url(#paint0_linear_73_2777)"/>
<path d="M171.656 23.465L167.504 17.9305C167.362 17.7412 167.137 17.6285 166.9 17.6285H165.799C165.643 17.6285 165.554 17.4511 165.648 17.3265L171.49 9.54126C171.655 9.32075 171.497 9.00435 171.221 9.00435H168.425C168.247 9.00435 168.08 9.08824 167.972 9.22966L164.593 13.7335C164.492 13.8677 164.29 13.8677 164.19 13.7335L160.811 9.22966C160.703 9.08824 160.535 9.00195 160.357 9.00195H157.559C157.283 9.00195 157.125 9.31835 157.29 9.53887L162.396 16.3438C162.465 16.4372 162.465 16.5643 162.396 16.6578L157.29 23.465C157.125 23.6856 157.283 24.002 157.559 24.002H160.355C160.532 24.002 160.7 23.9181 160.808 23.7742L164.271 19.1578C164.372 19.0235 164.573 19.0235 164.674 19.1578L168.137 23.7742C168.245 23.9157 168.413 24.002 168.59 24.002H171.387C171.662 24.002 171.822 23.6856 171.656 23.465Z" fill="url(#paint1_linear_73_2777)"/>
<defs>
<linearGradient id="paint0_linear_73_2777" x1="148.723" y1="9.00195" x2="148.723" y2="24.002" gradientUnits="userSpaceOnUse">
<stop stop-color="#0D95FD"/>
<stop offset="1" stop-color="#4741AD"/>
</linearGradient>
<linearGradient id="paint1_linear_73_2777" x1="164.473" y1="9.00195" x2="164.473" y2="24.002" gradientUnits="userSpaceOnUse">
<stop stop-color="#0D95FD"/>
<stop offset="1" stop-color="#4741AD"/>
</linearGradient>
</defs>
</svg>
