<svg width="157" height="19" viewBox="0 0 157 19" fill="none" xmlns="http://www.w3.org/2000/svg">
<path d="M114.779 9.70108C114.779 15.6128 111.117 18.9998 106.33 18.9998C101.506 18.9998 97.8564 15.5878 97.8564 9.70108C97.8564 3.78938 101.506 0.402344 106.33 0.402344C111.117 0.402344 114.779 3.78938 114.779 9.70108ZM101.681 9.70108C101.681 13.5631 103.518 15.6628 106.33 15.6753C109.117 15.6628 110.967 13.5631 110.955 9.70108C110.967 5.82661 109.117 3.73939 106.33 3.72689C103.518 3.73939 101.681 5.82661 101.681 9.70108Z" fill="white"/>
<path d="M82.0342 18.7474V0.649902H89.1332C93.2452 0.649902 95.6073 2.96209 95.6073 6.5491C95.6073 9.02376 94.47 10.8235 92.4078 11.7109L96.2572 18.7474H92.1078L88.6458 12.3233H85.7837V18.7474H82.0342ZM85.7837 9.27373H88.4333C90.658 9.27373 91.7454 8.36135 91.7329 6.5491C91.7454 4.72435 90.658 3.73698 88.4333 3.72448H85.7837V9.27373Z" fill="white"/>
<path d="M75.3098 6.47652C74.7974 4.77675 73.4351 3.73939 71.4604 3.72689C68.6607 3.73939 66.761 5.8766 66.761 9.67608C66.761 13.5006 68.5983 15.6628 71.4854 15.6753C74.0725 15.6628 75.6098 14.2005 75.6598 11.9258H71.7353V9.10116H79.2843V11.3509C79.2843 16.1002 76.0222 18.9998 71.4604 18.9998C66.3861 18.9998 62.9365 15.4503 62.9365 9.72608C62.9365 3.85187 66.611 0.402344 71.3854 0.402344C75.4723 0.402344 78.6094 2.9145 79.1093 6.47652H75.3098Z" fill="white"/>
<path d="M48.2139 18.7474V0.649902H60.3622V3.74948H51.9634V8.14888H59.7373V11.2485H51.9634V15.6479H60.3872V18.7474H48.2139Z" fill="white"/>
<path d="M34.2402 18.7474V0.649902H37.9897V15.6479H45.7887V18.7474H34.2402Z" fill="white"/>
<path d="M20.2676 18.7474V0.649902H24.0171V15.6479H31.816V18.7474H20.2676Z" fill="white"/>
<path d="M4.91957 18.7474H0.870117L7.14426 0.649902H11.9686L18.2178 18.7474H14.1933L12.831 14.573H6.28188L4.91957 18.7474ZM7.23175 11.6484H11.8811L9.61893 4.72435H9.49395L7.23175 11.6484Z" fill="white"/>
<path d="M136.714 1.47373C136.714 0.968766 136.296 0.55957 135.782 0.55957H127.507C127.137 0.55957 126.782 0.704675 126.519 0.96006L124.776 2.6694C124.513 2.92768 124.158 3.06989 123.788 3.06989H121.806C121.291 3.06989 120.874 3.47908 120.874 3.98405V18.3814C120.874 18.6338 121.084 18.8399 121.341 18.8399H124.137C124.395 18.8399 124.602 18.6338 124.602 18.3814V5.13038C124.602 4.62541 125.019 4.21622 125.534 4.21622H132.524C132.782 4.21622 132.992 4.42227 132.992 4.67185V18.3843C132.992 18.6367 133.202 18.8428 133.459 18.8428H136.255C136.512 18.8428 136.719 18.6367 136.719 18.3843V1.47373H136.714Z" fill="white"/>
<path d="M156.75 18.1884L151.689 11.4424C151.516 11.2116 151.242 11.0743 150.952 11.0743H149.611C149.421 11.0743 149.312 10.8581 149.426 10.7062L156.547 1.21693C156.749 0.94814 156.556 0.56249 156.22 0.56249H152.811C152.595 0.56249 152.391 0.664746 152.259 0.837119L148.14 6.32676C148.018 6.49037 147.772 6.49037 147.649 6.32676L143.531 0.837119C143.399 0.664746 143.194 0.55957 142.978 0.55957H139.567C139.231 0.55957 139.038 0.94522 139.239 1.21401L145.463 9.50836C145.547 9.6223 145.547 9.77715 145.463 9.89109L139.239 18.1884C139.038 18.4571 139.231 18.8428 139.567 18.8428H142.975C143.191 18.8428 143.396 18.7405 143.528 18.5652L147.749 12.9383C147.871 12.7747 148.117 12.7747 148.24 12.9383L152.461 18.5652C152.592 18.7376 152.797 18.8428 153.013 18.8428H156.421C156.758 18.8428 156.952 18.4571 156.75 18.1884Z" fill="white"/>
</svg>
